<mxfile host="app.diagrams.net" modified="2021-01-21T12:44:48.922Z" agent="5.0 (Windows NT 10.0; Win64; x64) AppleWebKit/537.36 (KHTML, like Gecko) Chrome/87.0.4280.141 Safari/537.36" etag="v8gKN7ANOgYcYxZPSPjT" version="14.2.6" type="github">
  <diagram id="JnkVonY7q76SSW1olmCY" name="Rules Audit UI">
    <mxGraphModel dx="3162" dy="1122" grid="1" gridSize="10" guides="1" tooltips="1" connect="1" arrows="1" fold="1" page="1" pageScale="1" pageWidth="1100" pageHeight="850" math="0" shadow="0">
      <root>
        <mxCell id="0" />
        <mxCell id="1" parent="0" />
        <mxCell id="XOhGCk6YBhnOjWGj6omv-1" value="" style="rounded=0;whiteSpace=wrap;html=1;" parent="1" vertex="1">
          <mxGeometry x="16" y="90" width="1069" height="750" as="geometry" />
        </mxCell>
        <mxCell id="XOhGCk6YBhnOjWGj6omv-2" value="" style="rounded=0;whiteSpace=wrap;html=1;fillColor=#3333FF;" parent="1" vertex="1">
          <mxGeometry x="16" y="30" width="1069" height="60" as="geometry" />
        </mxCell>
        <mxCell id="XOhGCk6YBhnOjWGj6omv-3" value="&lt;font style=&quot;font-size: 14px&quot;&gt;FEEDBACK&lt;/font&gt;" style="rounded=1;whiteSpace=wrap;html=1;fillColor=#FF8000;strokeColor=#FF8000;fontColor=#FFFFFF;" parent="1" vertex="1">
          <mxGeometry x="953" y="40" width="120" height="40" as="geometry" />
        </mxCell>
        <mxCell id="XOhGCk6YBhnOjWGj6omv-4" value="" style="shape=image;html=1;verticalAlign=top;verticalLabelPosition=bottom;labelBackgroundColor=#ffffff;imageAspect=0;aspect=fixed;image=https://cdn3.iconfinder.com/data/icons/social-media-2125/78/bell-128.png;strokeColor=#FF8000;fillColor=#FF8000;fontColor=#FFFFFF;" parent="1" vertex="1">
          <mxGeometry x="891" y="40" width="37" height="37" as="geometry" />
        </mxCell>
        <mxCell id="XOhGCk6YBhnOjWGj6omv-5" value="" style="whiteSpace=wrap;html=1;shape=mxgraph.basic.octagon2;align=center;verticalAlign=middle;dx=12;shadow=0;sketch=0;fontSize=20;fontColor=#808080;fillColor=#FF8000;strokeColor=#FF8000;" parent="1" vertex="1">
          <mxGeometry x="26" y="36.5" width="56" height="42" as="geometry" />
        </mxCell>
        <mxCell id="XOhGCk6YBhnOjWGj6omv-6" value="Eva" style="text;html=1;strokeColor=none;fillColor=none;align=center;verticalAlign=middle;whiteSpace=wrap;rounded=0;shadow=0;sketch=0;fontSize=20;fontColor=#FFFFFF;fontStyle=1" parent="1" vertex="1">
          <mxGeometry x="92" y="50" width="40" height="20" as="geometry" />
        </mxCell>
        <mxCell id="XOhGCk6YBhnOjWGj6omv-7" value="" style="html=1;verticalLabelPosition=bottom;align=center;labelBackgroundColor=#ffffff;verticalAlign=top;strokeWidth=2;shadow=0;dashed=0;shape=mxgraph.ios7.icons.user;sketch=0;fontSize=20;fontColor=#FFFFFF;fillColor=#FFFFFF;" parent="1" vertex="1">
          <mxGeometry x="739" y="45" width="30" height="30" as="geometry" />
        </mxCell>
        <mxCell id="XOhGCk6YBhnOjWGj6omv-8" value="John Doe" style="text;html=1;strokeColor=none;fillColor=none;align=center;verticalAlign=middle;whiteSpace=wrap;rounded=0;shadow=0;sketch=0;fontSize=19;fontColor=#FFFFFF;" parent="1" vertex="1">
          <mxGeometry x="782.5" y="50" width="94" height="20" as="geometry" />
        </mxCell>
        <mxCell id="XOhGCk6YBhnOjWGj6omv-9" value="&amp;lt;Classification Here&amp;gt;" style="rounded=0;whiteSpace=wrap;html=1;shadow=0;sketch=0;fontSize=12;align=center;fillColor=#FFFF33;" parent="1" vertex="1">
          <mxGeometry x="16" y="10" width="1069" height="20" as="geometry" />
        </mxCell>
        <mxCell id="XOhGCk6YBhnOjWGj6omv-10" value="Rules Audit Review" style="text;html=1;strokeColor=none;fillColor=none;align=center;verticalAlign=middle;whiteSpace=wrap;rounded=0;fontColor=#999999;fontStyle=1;fontSize=20;" parent="1" vertex="1">
          <mxGeometry x="307" y="99.5" width="243" height="20" as="geometry" />
        </mxCell>
        <mxCell id="XOhGCk6YBhnOjWGj6omv-12" value="" style="fillColor=#f5f5f5;strokeColor=#666666;gradientColor=#b3b3b3;" parent="1" vertex="1">
          <mxGeometry x="324" y="485" width="30" height="100" as="geometry" />
        </mxCell>
        <mxCell id="XOhGCk6YBhnOjWGj6omv-13" value="" style="shape=mxgraph.arrows2.arrow;dy=0.4;dx=16;notch=0;direction=north;fillColor=#f5f5f5;strokeColor=#666666;gradientColor=#b3b3b3;" parent="XOhGCk6YBhnOjWGj6omv-12" vertex="1">
          <mxGeometry x="3" y="30" width="24" height="70" as="geometry" />
        </mxCell>
        <mxCell id="XOhGCk6YBhnOjWGj6omv-14" value="Label" style="text;html=1;align=center;verticalAlign=middle;whiteSpace=wrap;fontSize=10;gradientColor=#b3b3b3;fillColor=#f5f5f5;strokeColor=#666666;" parent="XOhGCk6YBhnOjWGj6omv-12" vertex="1">
          <mxGeometry width="30" height="20" as="geometry" />
        </mxCell>
        <mxCell id="XOhGCk6YBhnOjWGj6omv-15" value="" style="fillColor=#f5f5f5;strokeColor=#666666;gradientColor=#b3b3b3;" parent="1" vertex="1">
          <mxGeometry x="359" y="464.5" width="30" height="120.5" as="geometry" />
        </mxCell>
        <mxCell id="XOhGCk6YBhnOjWGj6omv-16" value="" style="shape=mxgraph.arrows2.arrow;dy=0.4;dx=16;notch=0;direction=south;fillColor=#f5f5f5;strokeColor=#666666;gradientColor=#b3b3b3;" parent="XOhGCk6YBhnOjWGj6omv-15" vertex="1">
          <mxGeometry x="3" width="24" height="80.33333333333333" as="geometry" />
        </mxCell>
        <mxCell id="XOhGCk6YBhnOjWGj6omv-17" value="Label" style="text;html=1;align=center;verticalAlign=middle;whiteSpace=wrap;fontSize=10;gradientColor=#b3b3b3;fillColor=#f5f5f5;strokeColor=#666666;" parent="XOhGCk6YBhnOjWGj6omv-15" vertex="1">
          <mxGeometry width="30" height="20.083333333333332" as="geometry" />
        </mxCell>
        <mxCell id="XOhGCk6YBhnOjWGj6omv-18" value="" style="fillColor=#f5f5f5;strokeColor=#666666;gradientColor=#b3b3b3;" parent="1" vertex="1">
          <mxGeometry x="394" y="455" width="30" height="130" as="geometry" />
        </mxCell>
        <mxCell id="XOhGCk6YBhnOjWGj6omv-19" value="" style="shape=mxgraph.arrows2.arrow;dy=0.4;dx=16;notch=0;direction=north;fillColor=#f5f5f5;strokeColor=#666666;gradientColor=#b3b3b3;" parent="XOhGCk6YBhnOjWGj6omv-18" vertex="1">
          <mxGeometry x="3" y="80" width="24" height="50" as="geometry" />
        </mxCell>
        <mxCell id="XOhGCk6YBhnOjWGj6omv-20" value="Label" style="text;html=1;align=center;verticalAlign=middle;whiteSpace=wrap;fontSize=10;gradientColor=#b3b3b3;fillColor=#f5f5f5;strokeColor=#666666;" parent="XOhGCk6YBhnOjWGj6omv-18" vertex="1">
          <mxGeometry width="30" height="20" as="geometry" />
        </mxCell>
        <mxCell id="XOhGCk6YBhnOjWGj6omv-21" value="" style="fillColor=#f5f5f5;strokeColor=#666666;gradientColor=#b3b3b3;" parent="1" vertex="1">
          <mxGeometry x="429" y="505" width="30" height="80" as="geometry" />
        </mxCell>
        <mxCell id="XOhGCk6YBhnOjWGj6omv-22" value="" style="shape=mxgraph.arrows2.arrow;dy=0.4;dx=16;notch=0;direction=south;fillColor=#f5f5f5;strokeColor=#666666;gradientColor=#b3b3b3;" parent="XOhGCk6YBhnOjWGj6omv-21" vertex="1">
          <mxGeometry x="3" width="24" height="50" as="geometry" />
        </mxCell>
        <mxCell id="XOhGCk6YBhnOjWGj6omv-23" value="Label" style="text;html=1;align=center;verticalAlign=middle;whiteSpace=wrap;fontSize=10;gradientColor=#b3b3b3;fillColor=#f5f5f5;strokeColor=#666666;" parent="XOhGCk6YBhnOjWGj6omv-21" vertex="1">
          <mxGeometry width="30" height="20" as="geometry" />
        </mxCell>
        <mxCell id="XOhGCk6YBhnOjWGj6omv-24" value="" style="fillColor=#f5f5f5;strokeColor=#666666;gradientColor=#b3b3b3;" parent="1" vertex="1">
          <mxGeometry x="462" y="510" width="30" height="75" as="geometry" />
        </mxCell>
        <mxCell id="XOhGCk6YBhnOjWGj6omv-26" value="Label" style="text;html=1;align=center;verticalAlign=middle;whiteSpace=wrap;fontSize=10;gradientColor=#b3b3b3;fillColor=#f5f5f5;strokeColor=#666666;" parent="XOhGCk6YBhnOjWGj6omv-24" vertex="1">
          <mxGeometry width="30" height="21.428571428571427" as="geometry" />
        </mxCell>
        <mxCell id="yaPiBGT9IwPMiY6rIRzQ-1" value="" style="shape=mxgraph.arrows2.arrow;dy=0.4;dx=16;notch=0;direction=north;fillColor=#f5f5f5;strokeColor=#666666;gradientColor=#b3b3b3;" vertex="1" parent="XOhGCk6YBhnOjWGj6omv-24">
          <mxGeometry x="3" y="30" width="24" height="45" as="geometry" />
        </mxCell>
        <mxCell id="XOhGCk6YBhnOjWGj6omv-27" value="" style="html=1;verticalLabelPosition=bottom;align=center;labelBackgroundColor=#ffffff;verticalAlign=top;strokeWidth=2;strokeColor=#666666;shadow=0;dashed=0;shape=mxgraph.ios7.icons.pie_chart;fillColor=#f5f5f5;gradientColor=#b3b3b3;" parent="1" vertex="1">
          <mxGeometry x="580" y="479" width="140" height="112" as="geometry" />
        </mxCell>
        <mxCell id="XOhGCk6YBhnOjWGj6omv-28" value="" style="shape=image;html=1;verticalAlign=top;verticalLabelPosition=bottom;labelBackgroundColor=#ffffff;imageAspect=0;aspect=fixed;image=https://cdn2.iconfinder.com/data/icons/ios-7-icons/50/line_chart-128.png;strokeColor=#FF8000;fillColor=#FF8000;fontColor=#FFFFFF;" parent="1" vertex="1">
          <mxGeometry x="810" y="460.75" width="128" height="128" as="geometry" />
        </mxCell>
        <mxCell id="XOhGCk6YBhnOjWGj6omv-29" value="" style="shape=rect;strokeColor=#eeeeee;fillColor=#ffffff;shadow=1;whiteSpace=wrap;" parent="1" vertex="1">
          <mxGeometry x="21.5" y="99.5" width="272" height="731" as="geometry" />
        </mxCell>
        <mxCell id="XOhGCk6YBhnOjWGj6omv-30" value="Datasets" style="text;verticalAlign=middle;spacing=0;spacingLeft=16;fontSize=15;resizeWidth=1;fontStyle=1" parent="XOhGCk6YBhnOjWGj6omv-29" vertex="1">
          <mxGeometry width="272" height="42" relative="1" as="geometry" />
        </mxCell>
        <mxCell id="XOhGCk6YBhnOjWGj6omv-31" value="Create and manage datasets and the objects within them." style="text;verticalAlign=middle;spacing=0;spacingLeft=16;fontSize=10;resizeWidth=1;fontColor=#808080;whiteSpace=wrap;" parent="XOhGCk6YBhnOjWGj6omv-29" vertex="1">
          <mxGeometry width="192" height="42" relative="1" as="geometry">
            <mxPoint y="22" as="offset" />
          </mxGeometry>
        </mxCell>
        <mxCell id="XOhGCk6YBhnOjWGj6omv-32" value="Digitizations" style="text;verticalAlign=middle;spacing=0;spacingLeft=16;fontSize=15;resizeWidth=1;fontStyle=1" parent="XOhGCk6YBhnOjWGj6omv-29" vertex="1">
          <mxGeometry width="272" height="42" relative="1" as="geometry">
            <mxPoint y="71" as="offset" />
          </mxGeometry>
        </mxCell>
        <mxCell id="XOhGCk6YBhnOjWGj6omv-33" value="Bulk ingest of standard files in a defined format." style="text;verticalAlign=middle;spacing=0;spacingLeft=16;fontSize=10;resizeWidth=1;fontColor=#808080;" parent="XOhGCk6YBhnOjWGj6omv-29" vertex="1">
          <mxGeometry width="272" height="42" relative="1" as="geometry">
            <mxPoint y="91" as="offset" />
          </mxGeometry>
        </mxCell>
        <mxCell id="XOhGCk6YBhnOjWGj6omv-34" value="Holding Pen" style="text;verticalAlign=middle;spacing=0;spacingLeft=16;fontSize=15;resizeWidth=1;fontStyle=1" parent="XOhGCk6YBhnOjWGj6omv-29" vertex="1">
          <mxGeometry width="272" height="42" relative="1" as="geometry">
            <mxPoint y="128" as="offset" />
          </mxGeometry>
        </mxCell>
        <mxCell id="XOhGCk6YBhnOjWGj6omv-35" value="Secure, short term storage for objects" style="text;verticalAlign=middle;spacing=0;spacingLeft=16;fontSize=10;resizeWidth=1;fontColor=#808080;" parent="XOhGCk6YBhnOjWGj6omv-29" vertex="1">
          <mxGeometry width="272" height="42" relative="1" as="geometry">
            <mxPoint y="146" as="offset" />
          </mxGeometry>
        </mxCell>
        <mxCell id="XOhGCk6YBhnOjWGj6omv-36" value="IMA Process" style="text;verticalAlign=middle;spacing=0;spacingLeft=16;fontSize=15;resizeWidth=1;fontStyle=1" parent="XOhGCk6YBhnOjWGj6omv-29" vertex="1">
          <mxGeometry width="272" height="42" relative="1" as="geometry">
            <mxPoint y="182" as="offset" />
          </mxGeometry>
        </mxCell>
        <mxCell id="XOhGCk6YBhnOjWGj6omv-37" value="Guide systems through the IMA Processs" style="text;verticalAlign=middle;spacing=0;spacingLeft=16;fontSize=10;resizeWidth=1;fontColor=#808080;" parent="XOhGCk6YBhnOjWGj6omv-29" vertex="1">
          <mxGeometry width="272" height="42" relative="1" as="geometry">
            <mxPoint y="199" as="offset" />
          </mxGeometry>
        </mxCell>
        <mxCell id="XOhGCk6YBhnOjWGj6omv-38" value="Metrics" style="text;verticalAlign=middle;spacing=0;spacingLeft=16;fontSize=15;resizeWidth=1;fillColor=none;fontStyle=1" parent="XOhGCk6YBhnOjWGj6omv-29" vertex="1">
          <mxGeometry width="272" height="42" relative="1" as="geometry">
            <mxPoint y="234" as="offset" />
          </mxGeometry>
        </mxCell>
        <mxCell id="XOhGCk6YBhnOjWGj6omv-39" value="View various records management metrics" style="text;verticalAlign=middle;spacing=0;spacingLeft=16;fontSize=10;resizeWidth=1;fontColor=#808080;" parent="XOhGCk6YBhnOjWGj6omv-29" vertex="1">
          <mxGeometry width="272" height="42" relative="1" as="geometry">
            <mxPoint y="252" as="offset" />
          </mxGeometry>
        </mxCell>
        <mxCell id="XOhGCk6YBhnOjWGj6omv-40" value="" style="shape=rect;strokeColor=none;fillColor=#dddddd;" parent="XOhGCk6YBhnOjWGj6omv-29" vertex="1">
          <mxGeometry x="1" width="4" height="190" relative="1" as="geometry">
            <mxPoint x="-4" y="125" as="offset" />
          </mxGeometry>
        </mxCell>
        <mxCell id="XOhGCk6YBhnOjWGj6omv-41" value="Search" style="text;verticalAlign=middle;spacing=0;spacingLeft=16;fontSize=15;resizeWidth=1;fontStyle=1" parent="XOhGCk6YBhnOjWGj6omv-29" vertex="1">
          <mxGeometry y="270.5029572974596" width="272" height="64.9090909090909" as="geometry" />
        </mxCell>
        <mxCell id="XOhGCk6YBhnOjWGj6omv-42" value="Search for objects across multiple datasets" style="text;verticalAlign=middle;spacing=0;spacingLeft=16;fontSize=10;resizeWidth=1;fontColor=#808080;" parent="XOhGCk6YBhnOjWGj6omv-29" vertex="1">
          <mxGeometry y="304.5" width="272" height="42" as="geometry" />
        </mxCell>
        <mxCell id="XOhGCk6YBhnOjWGj6omv-63" value="Rules&#xa;&#xa;" style="text;verticalAlign=middle;spacing=0;spacingLeft=16;fontSize=15;resizeWidth=1;fontStyle=1;fillColor=#dae8fc;strokeColor=#6c8ebf;" parent="XOhGCk6YBhnOjWGj6omv-29" vertex="1">
          <mxGeometry y="335.41" width="272" height="54.59" as="geometry" />
        </mxCell>
        <mxCell id="XOhGCk6YBhnOjWGj6omv-62" value="Manage System Rules" style="text;verticalAlign=middle;spacing=0;spacingLeft=16;fontSize=10;resizeWidth=1;fontColor=#808080;" parent="XOhGCk6YBhnOjWGj6omv-29" vertex="1">
          <mxGeometry y="346.71" width="272" height="42" as="geometry" />
        </mxCell>
        <mxCell id="XOhGCk6YBhnOjWGj6omv-43" value="" style="rounded=0;whiteSpace=wrap;html=1;align=left;shadow=0;" parent="1" vertex="1">
          <mxGeometry x="315" y="190" width="199" height="130" as="geometry" />
        </mxCell>
        <mxCell id="XOhGCk6YBhnOjWGj6omv-44" value="" style="rounded=0;whiteSpace=wrap;html=1;align=left;shadow=0;" parent="1" vertex="1">
          <mxGeometry x="872" y="190" width="193" height="130" as="geometry" />
        </mxCell>
        <mxCell id="XOhGCk6YBhnOjWGj6omv-45" value="" style="rounded=0;whiteSpace=wrap;html=1;align=left;shadow=1;" parent="1" vertex="1">
          <mxGeometry x="505" y="160" width="366" height="200" as="geometry" />
        </mxCell>
        <mxCell id="XOhGCk6YBhnOjWGj6omv-46" value="Go To" style="rounded=0;whiteSpace=wrap;html=1;fontColor=#FFFFFF;fillColor=#3333FF;strokeColor=#3333FF;" parent="1" vertex="1">
          <mxGeometry x="637.5" y="300" width="120" height="30" as="geometry" />
        </mxCell>
        <mxCell id="XOhGCk6YBhnOjWGj6omv-47" value="" style="html=1;verticalLabelPosition=bottom;labelBackgroundColor=#ffffff;verticalAlign=top;shadow=0;dashed=0;strokeWidth=4;shape=mxgraph.ios7.misc.more;strokeColor=#a0a0a0;" parent="1" vertex="1">
          <mxGeometry x="1053.5" y="248" width="7" height="14" as="geometry" />
        </mxCell>
        <mxCell id="XOhGCk6YBhnOjWGj6omv-48" value="" style="flipH=1;html=1;verticalLabelPosition=bottom;labelBackgroundColor=#ffffff;verticalAlign=top;shadow=0;dashed=0;strokeWidth=4;shape=mxgraph.ios7.misc.more;strokeColor=#a0a0a0;" parent="1" vertex="1">
          <mxGeometry x="318.5" y="248" width="7" height="14" as="geometry" />
        </mxCell>
        <mxCell id="XOhGCk6YBhnOjWGj6omv-49" value="&lt;div&gt;&lt;span style=&quot;font-size: 20px&quot;&gt;Old Rules&lt;/span&gt;&lt;/div&gt;&lt;br style=&quot;font-size: 16px&quot;&gt;&lt;span style=&quot;font-weight: normal&quot;&gt;There are 4 rules that are aged past the standard life span. &lt;br&gt;Review them here.&lt;/span&gt;" style="text;html=1;strokeColor=none;fillColor=none;align=center;verticalAlign=middle;whiteSpace=wrap;rounded=0;shadow=0;sketch=0;fontSize=10;fontColor=#808080;fontStyle=1" parent="1" vertex="1">
          <mxGeometry x="530" y="193" width="323" height="94" as="geometry" />
        </mxCell>
        <mxCell id="XOhGCk6YBhnOjWGj6omv-50" value="Rules Summary" style="text;html=1;strokeColor=none;fillColor=none;align=center;verticalAlign=middle;whiteSpace=wrap;rounded=0;fontStyle=1;fontColor=#999999;fontSize=20;" parent="1" vertex="1">
          <mxGeometry x="307" y="400" width="181.5" height="20" as="geometry" />
        </mxCell>
        <mxCell id="XOhGCk6YBhnOjWGj6omv-56" value="" style="flipH=1;html=1;verticalLabelPosition=bottom;labelBackgroundColor=#ffffff;verticalAlign=top;shadow=0;dashed=0;strokeWidth=4;shape=mxgraph.ios7.misc.more;strokeColor=#a0a0a0;" parent="1" vertex="1">
          <mxGeometry x="317" y="513" width="7" height="14" as="geometry" />
        </mxCell>
        <mxCell id="XOhGCk6YBhnOjWGj6omv-57" value="&lt;div style=&quot;font-size: 12px&quot;&gt;Rule Approval&lt;/div&gt;&lt;br style=&quot;font-size: 16px&quot;&gt;&lt;span style=&quot;font-size: 8px ; font-weight: 400&quot;&gt;6 rules are waiting to be approved. Review them here.&lt;/span&gt;" style="text;html=1;strokeColor=none;fillColor=none;align=center;verticalAlign=middle;whiteSpace=wrap;rounded=0;shadow=0;sketch=0;fontSize=10;fontColor=#808080;fontStyle=1" parent="1" vertex="1">
          <mxGeometry x="881.5" y="213" width="170" height="84" as="geometry" />
        </mxCell>
        <mxCell id="XOhGCk6YBhnOjWGj6omv-59" value="&lt;div&gt;&lt;font style=&quot;font-size: 12px&quot;&gt;System X Low Rule Match&lt;/font&gt;&lt;/div&gt;&lt;br style=&quot;font-size: 16px&quot;&gt;&lt;span style=&quot;font-weight: normal&quot;&gt;&lt;font style=&quot;font-size: 8px&quot;&gt;2 rules have not matched any documents in 14 days. Review them here.&lt;/font&gt;&lt;/span&gt;" style="text;html=1;strokeColor=none;fillColor=none;align=center;verticalAlign=middle;whiteSpace=wrap;rounded=0;shadow=0;sketch=0;fontSize=10;fontColor=#808080;fontStyle=1" parent="1" vertex="1">
          <mxGeometry x="329.5" y="216" width="170" height="84" as="geometry" />
        </mxCell>
        <mxCell id="yaPiBGT9IwPMiY6rIRzQ-2" value="" style="shape=image;html=1;verticalAlign=top;verticalLabelPosition=bottom;labelBackgroundColor=#ffffff;imageAspect=0;aspect=fixed;image=https://cdn2.iconfinder.com/data/icons/ios-7-icons/50/line_chart-128.png;strokeColor=#FF8000;fillColor=#FF8000;fontColor=#FFFFFF;" vertex="1" parent="1">
          <mxGeometry x="459" y="640" width="128" height="128" as="geometry" />
        </mxCell>
        <mxCell id="yaPiBGT9IwPMiY6rIRzQ-3" value="" style="shape=image;html=1;verticalAlign=top;verticalLabelPosition=bottom;labelBackgroundColor=#ffffff;imageAspect=0;aspect=fixed;image=https://cdn2.iconfinder.com/data/icons/ios-7-icons/50/line_chart-128.png;strokeColor=#FF8000;fillColor=#FF8000;fontColor=#FFFFFF;" vertex="1" parent="1">
          <mxGeometry x="720" y="630" width="128" height="128" as="geometry" />
        </mxCell>
        <mxCell id="yaPiBGT9IwPMiY6rIRzQ-4" value="" style="rounded=0;whiteSpace=wrap;html=1;strokeColor=#000000;fillColor=#F8F9FA;" vertex="1" parent="1">
          <mxGeometry x="36" y="1806" width="984" height="719" as="geometry" />
        </mxCell>
        <mxCell id="yaPiBGT9IwPMiY6rIRzQ-5" value="" style="rounded=0;whiteSpace=wrap;html=1;fillColor=#F8F9FA;" vertex="1" parent="1">
          <mxGeometry x="36" y="1895" width="274" height="630" as="geometry" />
        </mxCell>
        <mxCell id="yaPiBGT9IwPMiY6rIRzQ-6" value="" style="rounded=0;whiteSpace=wrap;html=1;fontSize=20;align=left;fillColor=#3333FF;" vertex="1" parent="1">
          <mxGeometry x="36" y="1895" width="984" height="40" as="geometry" />
        </mxCell>
        <mxCell id="yaPiBGT9IwPMiY6rIRzQ-7" value="" style="rounded=0;whiteSpace=wrap;html=1;fillColor=#F8F9FA;" vertex="1" parent="1">
          <mxGeometry x="36" y="1806" width="984" height="89" as="geometry" />
        </mxCell>
        <mxCell id="yaPiBGT9IwPMiY6rIRzQ-8" value="" style="rounded=0;whiteSpace=wrap;html=1;fillColor=#3333FF;" vertex="1" parent="1">
          <mxGeometry x="36" y="1745" width="984" height="61" as="geometry" />
        </mxCell>
        <mxCell id="yaPiBGT9IwPMiY6rIRzQ-9" value="&lt;font style=&quot;font-size: 14px&quot;&gt;FEEDBACK&lt;/font&gt;" style="rounded=1;whiteSpace=wrap;html=1;fillColor=#FF8000;strokeColor=#FF8000;fontColor=#FFFFFF;" vertex="1" parent="1">
          <mxGeometry x="886" y="1755.5" width="120" height="40" as="geometry" />
        </mxCell>
        <mxCell id="yaPiBGT9IwPMiY6rIRzQ-10" value="" style="shape=image;html=1;verticalAlign=top;verticalLabelPosition=bottom;labelBackgroundColor=#ffffff;imageAspect=0;aspect=fixed;image=https://cdn3.iconfinder.com/data/icons/social-media-2125/78/bell-128.png;strokeColor=#FF8000;fillColor=#FF8000;fontColor=#FFFFFF;" vertex="1" parent="1">
          <mxGeometry x="832" y="1757" width="37" height="37" as="geometry" />
        </mxCell>
        <mxCell id="yaPiBGT9IwPMiY6rIRzQ-11" value="" style="whiteSpace=wrap;html=1;shape=mxgraph.basic.octagon2;align=center;verticalAlign=middle;dx=12;shadow=0;sketch=0;fontSize=20;fontColor=#808080;fillColor=#FF8000;strokeColor=#FF8000;" vertex="1" parent="1">
          <mxGeometry x="46" y="1751.5" width="56" height="42" as="geometry" />
        </mxCell>
        <mxCell id="yaPiBGT9IwPMiY6rIRzQ-12" value="Rules Engine" style="text;html=1;strokeColor=none;fillColor=none;align=center;verticalAlign=middle;whiteSpace=wrap;rounded=0;shadow=0;sketch=0;fontSize=20;fontColor=#FFFFFF;fontStyle=1" vertex="1" parent="1">
          <mxGeometry x="112" y="1765" width="148" height="20" as="geometry" />
        </mxCell>
        <mxCell id="yaPiBGT9IwPMiY6rIRzQ-13" value="" style="html=1;verticalLabelPosition=bottom;align=center;labelBackgroundColor=#ffffff;verticalAlign=top;strokeWidth=2;shadow=0;dashed=0;shape=mxgraph.ios7.icons.user;sketch=0;fontSize=20;fontColor=#FFFFFF;fillColor=#FFFFFF;" vertex="1" parent="1">
          <mxGeometry x="680" y="1762" width="30" height="30" as="geometry" />
        </mxCell>
        <mxCell id="yaPiBGT9IwPMiY6rIRzQ-14" value="John Doe" style="text;html=1;strokeColor=none;fillColor=none;align=center;verticalAlign=middle;whiteSpace=wrap;rounded=0;shadow=0;sketch=0;fontSize=19;fontColor=#FFFFFF;" vertex="1" parent="1">
          <mxGeometry x="723.5" y="1767" width="94" height="20" as="geometry" />
        </mxCell>
        <mxCell id="yaPiBGT9IwPMiY6rIRzQ-15" value="" style="html=1;shadow=0;dashed=0;fillColor=#F8F9FA;strokeColor=none;fontSize=16;fontColor=#181819;align=left;spacing=15;" vertex="1" parent="1">
          <mxGeometry x="260" y="1825" width="555" height="60" as="geometry" />
        </mxCell>
        <mxCell id="yaPiBGT9IwPMiY6rIRzQ-16" value="Search" style="html=1;shadow=0;dashed=0;shape=mxgraph.bootstrap.rrect;rSize=5;fontSize=14;fontColor=#6C767D;strokeColor=#CED4DA;fillColor=#ffffff;align=left;spacing=10;" vertex="1" parent="yaPiBGT9IwPMiY6rIRzQ-15">
          <mxGeometry width="470" height="40" relative="1" as="geometry">
            <mxPoint x="10" y="10" as="offset" />
          </mxGeometry>
        </mxCell>
        <mxCell id="yaPiBGT9IwPMiY6rIRzQ-17" value="" style="ellipse;whiteSpace=wrap;html=1;fillColor=#FFFFFF;" vertex="1" parent="yaPiBGT9IwPMiY6rIRzQ-15">
          <mxGeometry x="425.67961165048536" y="22" width="10.776699029126211" height="10" as="geometry" />
        </mxCell>
        <mxCell id="yaPiBGT9IwPMiY6rIRzQ-18" value="" style="endArrow=none;html=1;" edge="1" parent="yaPiBGT9IwPMiY6rIRzQ-15">
          <mxGeometry width="50" height="50" relative="1" as="geometry">
            <mxPoint x="436.4563106796116" y="32" as="sourcePoint" />
            <mxPoint x="436.4563106796116" y="32" as="targetPoint" />
            <Array as="points">
              <mxPoint x="447.23300970873777" y="40" />
            </Array>
          </mxGeometry>
        </mxCell>
        <mxCell id="yaPiBGT9IwPMiY6rIRzQ-19" value="" style="triangle;whiteSpace=wrap;html=1;rotation=90;fillColor=#000000;" vertex="1" parent="yaPiBGT9IwPMiY6rIRzQ-15">
          <mxGeometry x="458.00970873786395" y="25" width="10.776699029126211" height="10" as="geometry" />
        </mxCell>
        <mxCell id="yaPiBGT9IwPMiY6rIRzQ-20" value="" style="html=1;shadow=0;dashed=0;shape=mxgraph.bootstrap.rrect;rSize=5;strokeColor=#DFDFDF;html=1;whiteSpace=wrap;fillColor=#FFFFFF;fontColor=#495057;" vertex="1" parent="1">
          <mxGeometry x="40" y="1955" width="260" height="300" as="geometry" />
        </mxCell>
        <mxCell id="yaPiBGT9IwPMiY6rIRzQ-21" value="&lt;font style=&quot;font-size: 16px&quot;&gt;Rule Title #1&lt;/font&gt;&lt;br&gt;&lt;b&gt;UUID:&lt;/b&gt;&amp;nbsp;1111-1111-1111&lt;br&gt;&lt;b&gt;System:&lt;/b&gt;&amp;nbsp;System X&lt;br&gt;&lt;b&gt;Description:&lt;/b&gt;&amp;nbsp; Match U docs" style="html=1;shadow=0;dashed=0;shape=mxgraph.bootstrap.topButton;rSize=5;perimeter=none;whiteSpace=wrap;resizeWidth=1;align=left;spacing=10;verticalAlign=top;strokeColor=#0085FC;fillColor=#FFFFFF;" vertex="1" parent="yaPiBGT9IwPMiY6rIRzQ-20">
          <mxGeometry width="260" height="100" relative="1" as="geometry" />
        </mxCell>
        <mxCell id="yaPiBGT9IwPMiY6rIRzQ-22" value="&lt;font style=&quot;font-size: 16px&quot;&gt;Rule Title&amp;nbsp;#2&lt;/font&gt;&lt;br&gt;&lt;b&gt;UUID&lt;/b&gt;&lt;b&gt;:&lt;/b&gt;&amp;nbsp;2222-2222-2222&lt;br&gt;&lt;b&gt;System&lt;/b&gt;&lt;span&gt;&lt;b&gt;:&lt;/b&gt;&amp;nbsp; System Y&lt;/span&gt;&lt;br&gt;&lt;b&gt;Description&lt;/b&gt;&lt;span&gt;&lt;b&gt;:&lt;/b&gt;&amp;nbsp; Find carrots&lt;/span&gt;" style="strokeColor=#6c8ebf;html=1;shadow=0;dashed=0;perimeter=none;whiteSpace=wrap;resizeWidth=1;align=left;spacing=10;fillColor=#0085FC;fontColor=#FFFFFF;" vertex="1" parent="yaPiBGT9IwPMiY6rIRzQ-20">
          <mxGeometry width="260" height="100" relative="1" as="geometry">
            <mxPoint y="100" as="offset" />
          </mxGeometry>
        </mxCell>
        <mxCell id="yaPiBGT9IwPMiY6rIRzQ-23" value="&lt;font style=&quot;font-size: 16px&quot;&gt;Rule Title #3&lt;/font&gt;&lt;br&gt;&lt;b style=&quot;color: rgb(73 , 80 , 87)&quot;&gt;UUID&lt;/b&gt;: 3333-3333-3333&lt;br&gt;&lt;b style=&quot;color: rgb(73 , 80 , 87)&quot;&gt;System&lt;/b&gt;&lt;span style=&quot;color: rgb(73 , 80 , 87)&quot;&gt;&lt;b&gt;:&lt;/b&gt;&amp;nbsp; System Z&lt;/span&gt;&lt;br style=&quot;color: rgb(73 , 80 , 87)&quot;&gt;&lt;b style=&quot;color: rgb(73 , 80 , 87)&quot;&gt;Description&lt;/b&gt;&lt;span style=&quot;color: rgb(73 , 80 , 87)&quot;&gt;&lt;b&gt;:&lt;/b&gt;&amp;nbsp; Find bombs&lt;/span&gt;" style="strokeColor=inherit;fillColor=inherit;gradientColor=inherit;fontColor=inherit;html=1;shadow=0;dashed=0;shape=mxgraph.bootstrap.bottomButton;rSize=5;perimeter=none;whiteSpace=wrap;resizeWidth=1;resizeHeight=0;align=left;spacing=10;" vertex="1" parent="yaPiBGT9IwPMiY6rIRzQ-20">
          <mxGeometry y="1" width="260" height="100" relative="1" as="geometry">
            <mxPoint y="-100" as="offset" />
          </mxGeometry>
        </mxCell>
        <mxCell id="yaPiBGT9IwPMiY6rIRzQ-28" value="Rule Title #2" style="shape=rect;fillColor=#ffffff;strokeColor=#eeeeee;shadow=1;fontColor=#000000;fontSize=23;fontStyle=0;verticalAlign=top;spacingBottom=0;spacingLeft=16;spacingTop=20;align=left;rounded=0;" vertex="1" parent="1">
          <mxGeometry x="320" y="1945" width="330" height="560" as="geometry" />
        </mxCell>
        <mxCell id="yaPiBGT9IwPMiY6rIRzQ-30" value="UUID:&#xa;&#xa;Description:&#xa;&#xa;System:&#xa;&#xa;Terms:&#xa;&#xa;Actions:&#xa;&#xa;&#xa;" style="text;whiteSpace=wrap;fontSize=13;spacing=16;spacingTop=-4;resizeWidth=1;resizeHeight=1;fontStyle=1" vertex="1" parent="yaPiBGT9IwPMiY6rIRzQ-28">
          <mxGeometry width="110" height="340" relative="1" as="geometry">
            <mxPoint x="5" y="50" as="offset" />
          </mxGeometry>
        </mxCell>
        <mxCell id="yaPiBGT9IwPMiY6rIRzQ-31" value="&amp;lt;Classification Here&amp;gt;" style="rounded=0;whiteSpace=wrap;html=1;shadow=0;sketch=0;fontSize=12;align=center;fillColor=#FFFF33;" vertex="1" parent="yaPiBGT9IwPMiY6rIRzQ-28">
          <mxGeometry y="5.1856" width="330" height="20.7424" as="geometry" />
        </mxCell>
        <mxCell id="yaPiBGT9IwPMiY6rIRzQ-146" value="2222-2222-2222&#xa;&#xa;Find carrots&#xa;&#xa;System Y&#xa;&#xa;TITLE contains &#39;carrot&#39;&#xa;&#xa;Add to RMM with FRCS-74" style="text;whiteSpace=wrap;fontSize=13;spacing=16;spacingTop=-4;resizeWidth=1;resizeHeight=1;fontStyle=0" vertex="1" parent="yaPiBGT9IwPMiY6rIRzQ-28">
          <mxGeometry x="110" y="50" width="190" height="340" as="geometry" />
        </mxCell>
        <mxCell id="yaPiBGT9IwPMiY6rIRzQ-148" value="&lt;span style=&quot;font-size: 23px&quot;&gt;&lt;font color=&quot;#ff3333&quot;&gt;Rule Actions&lt;/font&gt;&lt;/span&gt;" style="text;html=1;strokeColor=none;fillColor=none;align=center;verticalAlign=middle;whiteSpace=wrap;rounded=0;fontColor=#000000;" vertex="1" parent="yaPiBGT9IwPMiY6rIRzQ-28">
          <mxGeometry x="12" y="235" width="148" height="35" as="geometry" />
        </mxCell>
        <mxCell id="yaPiBGT9IwPMiY6rIRzQ-149" value="This rule has low document match rate.&lt;br&gt;&lt;br&gt;Review the rule and mark as reviewed, which will set the next required review date to&amp;nbsp;&lt;b&gt;2020-07-01&lt;/b&gt;" style="text;html=1;strokeColor=none;fillColor=none;align=left;verticalAlign=top;whiteSpace=wrap;rounded=0;fontColor=#000000;" vertex="1" parent="yaPiBGT9IwPMiY6rIRzQ-28">
          <mxGeometry x="20" y="270" width="300" height="60" as="geometry" />
        </mxCell>
        <mxCell id="yaPiBGT9IwPMiY6rIRzQ-200" value="2020-01-01: HoggeB&lt;br&gt;2019-07-01: Kimmela&lt;br&gt;2019-01-01: Kimmela" style="text;html=1;strokeColor=none;fillColor=none;align=left;verticalAlign=top;whiteSpace=wrap;rounded=0;fontColor=#000000;" vertex="1" parent="yaPiBGT9IwPMiY6rIRzQ-28">
          <mxGeometry x="20" y="415" width="300" height="60" as="geometry" />
        </mxCell>
        <mxCell id="yaPiBGT9IwPMiY6rIRzQ-199" value="Rule Review History" style="text;html=1;strokeColor=none;fillColor=none;align=center;verticalAlign=middle;whiteSpace=wrap;rounded=0;fontSize=13;fontColor=#000000;fontStyle=1" vertex="1" parent="yaPiBGT9IwPMiY6rIRzQ-28">
          <mxGeometry x="17" y="395" width="138" height="20" as="geometry" />
        </mxCell>
        <mxCell id="yaPiBGT9IwPMiY6rIRzQ-204" value="Reviewed" style="html=1;shadow=0;dashed=0;shape=mxgraph.bootstrap.rrect;rSize=5;fillColor=#dae8fc;strokeColor=#6c8ebf;fontSize=14;" vertex="1" parent="yaPiBGT9IwPMiY6rIRzQ-28">
          <mxGeometry x="30.003021582733766" y="345.0035612535612" width="88.38129496402877" height="33.04843304843305" as="geometry" />
        </mxCell>
        <mxCell id="yaPiBGT9IwPMiY6rIRzQ-205" value="Delete" style="html=1;shadow=0;dashed=0;shape=mxgraph.bootstrap.rrect;rSize=5;fillColor=#f8cecc;strokeColor=#b85450;fontSize=14;" vertex="1" parent="yaPiBGT9IwPMiY6rIRzQ-28">
          <mxGeometry x="155.00302158273377" y="345.0035612535612" width="88.38129496402877" height="33.04843304843305" as="geometry" />
        </mxCell>
        <mxCell id="yaPiBGT9IwPMiY6rIRzQ-43" value="Rules Audit Review" style="text;html=1;strokeColor=none;fillColor=none;align=left;verticalAlign=middle;whiteSpace=wrap;rounded=0;labelPosition=center;verticalLabelPosition=middle;fontSize=16;fontStyle=1;fontColor=#FFFFFF;" vertex="1" parent="1">
          <mxGeometry x="43" y="1905" width="260" height="20" as="geometry" />
        </mxCell>
        <mxCell id="yaPiBGT9IwPMiY6rIRzQ-44" value="" style="shape=ellipse;dashed=0;strokeColor=none;shadow=1;fontSize=13;align=center;verticalAlign=top;labelPosition=center;verticalLabelPosition=bottom;html=1;aspect=fixed;fillColor=#F8F9FA;" vertex="1" parent="1">
          <mxGeometry x="610" y="2015" width="30" height="30" as="geometry" />
        </mxCell>
        <mxCell id="yaPiBGT9IwPMiY6rIRzQ-45" value="" style="dashed=0;html=1;shape=mxgraph.gmdl.edit;strokeColor=none;fillColor=#737373;shadow=0;" vertex="1" parent="yaPiBGT9IwPMiY6rIRzQ-44">
          <mxGeometry x="9.642857142857142" y="9.642857142857142" width="10.714285714285714" height="10.714285714285714" as="geometry" />
        </mxCell>
        <mxCell id="yaPiBGT9IwPMiY6rIRzQ-46" value="" style="shape=ellipse;dashed=0;strokeColor=none;shadow=1;fontSize=13;align=center;verticalAlign=top;labelPosition=center;verticalLabelPosition=bottom;html=1;aspect=fixed;fillColor=#F8F9FA;" vertex="1" parent="1">
          <mxGeometry x="610" y="1975" width="30" height="30" as="geometry" />
        </mxCell>
        <mxCell id="yaPiBGT9IwPMiY6rIRzQ-47" value="" style="dashed=0;html=1;shape=mxgraph.gmdl.x;strokeColor=#737373;strokeWidth=2;shadow=0;" vertex="1" parent="yaPiBGT9IwPMiY6rIRzQ-46">
          <mxGeometry x="10.714285714285714" y="10.714285714285714" width="8.571428571428571" height="8.571428571428571" as="geometry" />
        </mxCell>
        <mxCell id="yaPiBGT9IwPMiY6rIRzQ-51" value="&amp;lt;Classification Here&amp;gt;" style="rounded=0;whiteSpace=wrap;html=1;shadow=0;sketch=0;fontSize=12;align=center;fillColor=#FFFF33;" vertex="1" parent="1">
          <mxGeometry x="36" y="1725" width="984" height="20" as="geometry" />
        </mxCell>
        <mxCell id="yaPiBGT9IwPMiY6rIRzQ-52" value="" style="html=1;shadow=0;dashed=0;shape=mxgraph.bootstrap.rrect;rSize=5;strokeColor=#DEE2E6;html=1;whiteSpace=wrap;fillColor=#ffffff;fontColor=#0085FC;fontSize=14;" vertex="1" parent="1">
          <mxGeometry x="120" y="2495" width="187" height="25" as="geometry" />
        </mxCell>
        <mxCell id="yaPiBGT9IwPMiY6rIRzQ-53" value="Previous" style="strokeColor=inherit;fillColor=inherit;gradientColor=inherit;html=1;shadow=0;dashed=0;shape=mxgraph.bootstrap.leftButton;rSize=5;perimeter=none;whiteSpace=wrap;resizeHeight=1;fontColor=#6C767D;fontSize=14;" vertex="1" parent="yaPiBGT9IwPMiY6rIRzQ-52">
          <mxGeometry width="70" height="25" relative="1" as="geometry" />
        </mxCell>
        <mxCell id="yaPiBGT9IwPMiY6rIRzQ-54" value="1" style="strokeColor=inherit;fillColor=inherit;gradientColor=inherit;fontColor=inherit;html=1;shadow=0;dashed=0;perimeter=none;whiteSpace=wrap;resizeHeight=1;fontSize=14;" vertex="1" parent="yaPiBGT9IwPMiY6rIRzQ-52">
          <mxGeometry width="30" height="25" relative="1" as="geometry">
            <mxPoint x="70" as="offset" />
          </mxGeometry>
        </mxCell>
        <mxCell id="yaPiBGT9IwPMiY6rIRzQ-55" value="2" style="html=1;shadow=0;dashed=0;perimeter=none;whiteSpace=wrap;resizeHeight=1;fillColor=#0085FC;strokeColor=none;fontColor=#ffffff;fontSize=14;" vertex="1" parent="yaPiBGT9IwPMiY6rIRzQ-52">
          <mxGeometry width="30" height="25" relative="1" as="geometry">
            <mxPoint x="100" as="offset" />
          </mxGeometry>
        </mxCell>
        <mxCell id="yaPiBGT9IwPMiY6rIRzQ-56" value="3" style="strokeColor=inherit;fillColor=inherit;gradientColor=inherit;fontColor=inherit;html=1;shadow=0;dashed=0;perimeter=none;whiteSpace=wrap;resizeHeight=1;fontSize=14;" vertex="1" parent="yaPiBGT9IwPMiY6rIRzQ-52">
          <mxGeometry width="30" height="25" relative="1" as="geometry">
            <mxPoint x="130" as="offset" />
          </mxGeometry>
        </mxCell>
        <mxCell id="yaPiBGT9IwPMiY6rIRzQ-57" value="Next" style="strokeColor=inherit;fillColor=inherit;gradientColor=inherit;fontColor=inherit;html=1;shadow=0;dashed=0;shape=mxgraph.bootstrap.rightButton;rSize=5;perimeter=none;whiteSpace=wrap;resizeHeight=1;fontSize=14;" vertex="1" parent="yaPiBGT9IwPMiY6rIRzQ-52">
          <mxGeometry x="1" width="60" height="25" relative="1" as="geometry">
            <mxPoint x="-60" as="offset" />
          </mxGeometry>
        </mxCell>
        <mxCell id="yaPiBGT9IwPMiY6rIRzQ-64" value="30 Day History" style="shape=rect;fillColor=#ffffff;strokeColor=#eeeeee;shadow=1;fontColor=#000000;fontSize=23;fontStyle=0;verticalAlign=top;spacingBottom=0;spacingLeft=16;spacingTop=20;align=left;rounded=0;" vertex="1" parent="1">
          <mxGeometry x="670" y="1945" width="330" height="560" as="geometry" />
        </mxCell>
        <mxCell id="yaPiBGT9IwPMiY6rIRzQ-73" value="" style="rounded=0;whiteSpace=wrap;html=1;strokeColor=#000000;fillColor=#F8F9FA;perimeterSpacing=5;spacing=8;" vertex="1" parent="1">
          <mxGeometry x="22" y="951" width="984" height="719" as="geometry" />
        </mxCell>
        <mxCell id="yaPiBGT9IwPMiY6rIRzQ-74" value="" style="rounded=0;whiteSpace=wrap;html=1;fillColor=#F8F9FA;" vertex="1" parent="1">
          <mxGeometry x="292" y="1075" width="274" height="595" as="geometry" />
        </mxCell>
        <mxCell id="yaPiBGT9IwPMiY6rIRzQ-75" value="" style="rounded=0;whiteSpace=wrap;html=1;fontSize=20;align=left;fillColor=#3333FF;" vertex="1" parent="1">
          <mxGeometry x="22" y="1040" width="984" height="40" as="geometry" />
        </mxCell>
        <mxCell id="yaPiBGT9IwPMiY6rIRzQ-76" value="" style="rounded=0;whiteSpace=wrap;html=1;fillColor=#F8F9FA;" vertex="1" parent="1">
          <mxGeometry x="22" y="951" width="984" height="89" as="geometry" />
        </mxCell>
        <mxCell id="yaPiBGT9IwPMiY6rIRzQ-77" value="" style="rounded=0;whiteSpace=wrap;html=1;fillColor=#3333FF;" vertex="1" parent="1">
          <mxGeometry x="22" y="890" width="984" height="61" as="geometry" />
        </mxCell>
        <mxCell id="yaPiBGT9IwPMiY6rIRzQ-78" value="&lt;font style=&quot;font-size: 14px&quot;&gt;FEEDBACK&lt;/font&gt;" style="rounded=1;whiteSpace=wrap;html=1;fillColor=#FF8000;strokeColor=#FF8000;fontColor=#FFFFFF;" vertex="1" parent="1">
          <mxGeometry x="872" y="900.5" width="120" height="40" as="geometry" />
        </mxCell>
        <mxCell id="yaPiBGT9IwPMiY6rIRzQ-79" value="" style="shape=image;html=1;verticalAlign=top;verticalLabelPosition=bottom;labelBackgroundColor=#ffffff;imageAspect=0;aspect=fixed;image=https://cdn3.iconfinder.com/data/icons/social-media-2125/78/bell-128.png;strokeColor=#FF8000;fillColor=#FF8000;fontColor=#FFFFFF;" vertex="1" parent="1">
          <mxGeometry x="818" y="902" width="37" height="37" as="geometry" />
        </mxCell>
        <mxCell id="yaPiBGT9IwPMiY6rIRzQ-80" value="" style="whiteSpace=wrap;html=1;shape=mxgraph.basic.octagon2;align=center;verticalAlign=middle;dx=12;shadow=0;sketch=0;fontSize=20;fontColor=#808080;fillColor=#FF8000;strokeColor=#FF8000;" vertex="1" parent="1">
          <mxGeometry x="32" y="896.5" width="56" height="42" as="geometry" />
        </mxCell>
        <mxCell id="yaPiBGT9IwPMiY6rIRzQ-81" value="Rules Engine" style="text;html=1;strokeColor=none;fillColor=none;align=center;verticalAlign=middle;whiteSpace=wrap;rounded=0;shadow=0;sketch=0;fontSize=20;fontColor=#FFFFFF;fontStyle=1" vertex="1" parent="1">
          <mxGeometry x="98" y="910" width="142" height="20" as="geometry" />
        </mxCell>
        <mxCell id="yaPiBGT9IwPMiY6rIRzQ-82" value="" style="html=1;verticalLabelPosition=bottom;align=center;labelBackgroundColor=#ffffff;verticalAlign=top;strokeWidth=2;shadow=0;dashed=0;shape=mxgraph.ios7.icons.user;sketch=0;fontSize=20;fontColor=#FFFFFF;fillColor=#FFFFFF;" vertex="1" parent="1">
          <mxGeometry x="666" y="907" width="30" height="30" as="geometry" />
        </mxCell>
        <mxCell id="yaPiBGT9IwPMiY6rIRzQ-83" value="John Doe" style="text;html=1;strokeColor=none;fillColor=none;align=center;verticalAlign=middle;whiteSpace=wrap;rounded=0;shadow=0;sketch=0;fontSize=19;fontColor=#FFFFFF;" vertex="1" parent="1">
          <mxGeometry x="709.5" y="912" width="94" height="20" as="geometry" />
        </mxCell>
        <mxCell id="yaPiBGT9IwPMiY6rIRzQ-84" value="" style="html=1;shadow=0;dashed=0;fillColor=#F8F9FA;strokeColor=none;fontSize=16;fontColor=#181819;align=left;spacing=15;" vertex="1" parent="1">
          <mxGeometry x="246" y="970" width="555" height="60" as="geometry" />
        </mxCell>
        <mxCell id="yaPiBGT9IwPMiY6rIRzQ-85" value="Search" style="html=1;shadow=0;dashed=0;shape=mxgraph.bootstrap.rrect;rSize=5;fontSize=14;fontColor=#6C767D;strokeColor=#CED4DA;fillColor=#ffffff;align=left;spacing=10;" vertex="1" parent="yaPiBGT9IwPMiY6rIRzQ-84">
          <mxGeometry width="470" height="40" relative="1" as="geometry">
            <mxPoint x="10" y="10" as="offset" />
          </mxGeometry>
        </mxCell>
        <mxCell id="yaPiBGT9IwPMiY6rIRzQ-86" value="" style="ellipse;whiteSpace=wrap;html=1;fillColor=#FFFFFF;" vertex="1" parent="yaPiBGT9IwPMiY6rIRzQ-84">
          <mxGeometry x="425.67961165048536" y="22" width="10.776699029126211" height="10" as="geometry" />
        </mxCell>
        <mxCell id="yaPiBGT9IwPMiY6rIRzQ-87" value="" style="endArrow=none;html=1;" edge="1" parent="yaPiBGT9IwPMiY6rIRzQ-84">
          <mxGeometry width="50" height="50" relative="1" as="geometry">
            <mxPoint x="436.4563106796116" y="32" as="sourcePoint" />
            <mxPoint x="436.4563106796116" y="32" as="targetPoint" />
            <Array as="points">
              <mxPoint x="447.23300970873777" y="40" />
            </Array>
          </mxGeometry>
        </mxCell>
        <mxCell id="yaPiBGT9IwPMiY6rIRzQ-88" value="" style="triangle;whiteSpace=wrap;html=1;rotation=90;fillColor=#000000;" vertex="1" parent="yaPiBGT9IwPMiY6rIRzQ-84">
          <mxGeometry x="458.00970873786395" y="25" width="10.776699029126211" height="10" as="geometry" />
        </mxCell>
        <mxCell id="yaPiBGT9IwPMiY6rIRzQ-89" value="" style="html=1;shadow=0;dashed=0;shape=mxgraph.bootstrap.rrect;rSize=5;html=1;whiteSpace=wrap;fillColor=#FFFFFF;fontColor=#495057;strokeColor=#DFDFDF;" vertex="1" parent="1">
          <mxGeometry x="302" y="1099" width="260" height="300" as="geometry" />
        </mxCell>
        <mxCell id="yaPiBGT9IwPMiY6rIRzQ-90" value="&lt;font style=&quot;font-size: 16px&quot;&gt;Rule Title #1&lt;/font&gt;&lt;br&gt;&lt;b&gt;UUID:&lt;/b&gt; 123456/1258d25s8f22f&lt;br&gt;&lt;b&gt;System:&lt;/b&gt;&amp;nbsp;System X&lt;br&gt;&lt;b&gt;Description:&lt;/b&gt;&amp;nbsp; Match U docs" style="html=1;shadow=0;dashed=0;shape=mxgraph.bootstrap.topButton;rSize=5;perimeter=none;whiteSpace=wrap;resizeWidth=1;align=left;spacing=10;verticalAlign=top;fontColor=#495057;strokeColor=#DFDFDF;fillColor=#FFFFFF;" vertex="1" parent="yaPiBGT9IwPMiY6rIRzQ-89">
          <mxGeometry width="260" height="100" relative="1" as="geometry">
            <mxPoint as="offset" />
          </mxGeometry>
        </mxCell>
        <mxCell id="yaPiBGT9IwPMiY6rIRzQ-91" value="&lt;font style=&quot;font-size: 16px&quot;&gt;Rule Title&amp;nbsp;#2&lt;/font&gt;&lt;br&gt;&lt;b style=&quot;color: rgb(73 , 80 , 87)&quot;&gt;UUID&lt;/b&gt;&lt;b&gt;:&lt;/b&gt; 185576/58d6s8dd222dgf8&lt;br&gt;&lt;b style=&quot;color: rgb(73 , 80 , 87)&quot;&gt;System&lt;/b&gt;&lt;span style=&quot;color: rgb(73 , 80 , 87)&quot;&gt;&lt;b&gt;:&lt;/b&gt;&amp;nbsp; System Y&lt;/span&gt;&lt;br style=&quot;color: rgb(73 , 80 , 87)&quot;&gt;&lt;b style=&quot;color: rgb(73 , 80 , 87)&quot;&gt;Description&lt;/b&gt;&lt;span style=&quot;color: rgb(73 , 80 , 87)&quot;&gt;&lt;b&gt;:&lt;/b&gt;&amp;nbsp; ABD/PPP/DDD&lt;/span&gt;" style="strokeColor=inherit;fillColor=inherit;gradientColor=inherit;fontColor=inherit;html=1;shadow=0;dashed=0;perimeter=none;whiteSpace=wrap;resizeWidth=1;align=left;spacing=10;" vertex="1" parent="yaPiBGT9IwPMiY6rIRzQ-89">
          <mxGeometry width="260" height="100" relative="1" as="geometry">
            <mxPoint y="100" as="offset" />
          </mxGeometry>
        </mxCell>
        <mxCell id="yaPiBGT9IwPMiY6rIRzQ-92" value="&lt;font style=&quot;font-size: 16px&quot;&gt;Rule Title #3&lt;/font&gt;&lt;br&gt;&lt;b style=&quot;color: rgb(73 , 80 , 87)&quot;&gt;UUID&lt;/b&gt;: 123456/88d55s6c8fs6&lt;br&gt;&lt;b style=&quot;color: rgb(73 , 80 , 87)&quot;&gt;System&lt;/b&gt;&lt;span style=&quot;color: rgb(73 , 80 , 87)&quot;&gt;&lt;b&gt;:&lt;/b&gt;&amp;nbsp; System Z&lt;/span&gt;&lt;br style=&quot;color: rgb(73 , 80 , 87)&quot;&gt;&lt;b style=&quot;color: rgb(73 , 80 , 87)&quot;&gt;Description&lt;/b&gt;&lt;span style=&quot;color: rgb(73 , 80 , 87)&quot;&gt;&lt;b&gt;:&lt;/b&gt;&amp;nbsp; ABD/PPP/DDD&lt;/span&gt;" style="strokeColor=inherit;fillColor=inherit;gradientColor=inherit;fontColor=inherit;html=1;shadow=0;dashed=0;shape=mxgraph.bootstrap.bottomButton;rSize=5;perimeter=none;whiteSpace=wrap;resizeWidth=1;resizeHeight=0;align=left;spacing=10;" vertex="1" parent="yaPiBGT9IwPMiY6rIRzQ-89">
          <mxGeometry y="1" width="260" height="100" relative="1" as="geometry">
            <mxPoint y="-100" as="offset" />
          </mxGeometry>
        </mxCell>
        <mxCell id="yaPiBGT9IwPMiY6rIRzQ-97" value="Rules" style="text;html=1;strokeColor=none;fillColor=none;align=left;verticalAlign=middle;whiteSpace=wrap;rounded=0;labelPosition=center;verticalLabelPosition=middle;fontSize=16;fontStyle=1;fontColor=#FFFFFF;" vertex="1" parent="1">
          <mxGeometry x="29" y="1050" width="260" height="20" as="geometry" />
        </mxCell>
        <mxCell id="yaPiBGT9IwPMiY6rIRzQ-98" value="&amp;lt;Classification Here&amp;gt;" style="rounded=0;whiteSpace=wrap;html=1;shadow=0;sketch=0;fontSize=12;align=center;fillColor=#FFFF33;" vertex="1" parent="1">
          <mxGeometry x="22" y="870" width="984" height="20" as="geometry" />
        </mxCell>
        <mxCell id="yaPiBGT9IwPMiY6rIRzQ-99" value="" style="html=1;shadow=0;dashed=0;shape=mxgraph.bootstrap.rrect;rSize=5;strokeColor=#DEE2E6;html=1;whiteSpace=wrap;fillColor=#ffffff;fontColor=#0085FC;fontSize=14;" vertex="1" parent="1">
          <mxGeometry x="372" y="1639" width="187" height="25" as="geometry" />
        </mxCell>
        <mxCell id="yaPiBGT9IwPMiY6rIRzQ-100" value="Previous" style="strokeColor=inherit;fillColor=inherit;gradientColor=inherit;html=1;shadow=0;dashed=0;shape=mxgraph.bootstrap.leftButton;rSize=5;perimeter=none;whiteSpace=wrap;resizeHeight=1;fontColor=#6C767D;fontSize=14;" vertex="1" parent="yaPiBGT9IwPMiY6rIRzQ-99">
          <mxGeometry width="70" height="25" relative="1" as="geometry" />
        </mxCell>
        <mxCell id="yaPiBGT9IwPMiY6rIRzQ-101" value="1" style="strokeColor=inherit;fillColor=inherit;gradientColor=inherit;fontColor=inherit;html=1;shadow=0;dashed=0;perimeter=none;whiteSpace=wrap;resizeHeight=1;fontSize=14;" vertex="1" parent="yaPiBGT9IwPMiY6rIRzQ-99">
          <mxGeometry width="30" height="25" relative="1" as="geometry">
            <mxPoint x="70" as="offset" />
          </mxGeometry>
        </mxCell>
        <mxCell id="yaPiBGT9IwPMiY6rIRzQ-102" value="2" style="html=1;shadow=0;dashed=0;perimeter=none;whiteSpace=wrap;resizeHeight=1;fillColor=#0085FC;strokeColor=none;fontColor=#ffffff;fontSize=14;" vertex="1" parent="yaPiBGT9IwPMiY6rIRzQ-99">
          <mxGeometry width="30" height="25" relative="1" as="geometry">
            <mxPoint x="100" as="offset" />
          </mxGeometry>
        </mxCell>
        <mxCell id="yaPiBGT9IwPMiY6rIRzQ-103" value="3" style="strokeColor=inherit;fillColor=inherit;gradientColor=inherit;fontColor=inherit;html=1;shadow=0;dashed=0;perimeter=none;whiteSpace=wrap;resizeHeight=1;fontSize=14;" vertex="1" parent="yaPiBGT9IwPMiY6rIRzQ-99">
          <mxGeometry width="30" height="25" relative="1" as="geometry">
            <mxPoint x="130" as="offset" />
          </mxGeometry>
        </mxCell>
        <mxCell id="yaPiBGT9IwPMiY6rIRzQ-104" value="Next" style="strokeColor=inherit;fillColor=inherit;gradientColor=inherit;fontColor=inherit;html=1;shadow=0;dashed=0;shape=mxgraph.bootstrap.rightButton;rSize=5;perimeter=none;whiteSpace=wrap;resizeHeight=1;fontSize=14;" vertex="1" parent="yaPiBGT9IwPMiY6rIRzQ-99">
          <mxGeometry x="1" width="60" height="25" relative="1" as="geometry">
            <mxPoint x="-60" as="offset" />
          </mxGeometry>
        </mxCell>
        <mxCell id="yaPiBGT9IwPMiY6rIRzQ-105" value="Fav:" style="text;html=1;strokeColor=none;fillColor=none;align=center;verticalAlign=middle;whiteSpace=wrap;rounded=0;shadow=0;sketch=0;fontSize=10;fontColor=#FFFFFF;" vertex="1" parent="1">
          <mxGeometry x="223" y="1050" width="40" height="20" as="geometry" />
        </mxCell>
        <mxCell id="yaPiBGT9IwPMiY6rIRzQ-106" value="" style="shape=image;html=1;verticalAlign=top;verticalLabelPosition=bottom;labelBackgroundColor=#ffffff;imageAspect=0;aspect=fixed;image=https://cdn2.iconfinder.com/data/icons/font-awesome/1792/sort-alpha-asc-128.png;rounded=1;shadow=1;sketch=0;strokeColor=#000000;fillColor=#4285F4;fontSize=11;align=left;fontColor=#97D077;" vertex="1" parent="1">
          <mxGeometry x="176" y="1053" width="15" height="15" as="geometry" />
        </mxCell>
        <mxCell id="yaPiBGT9IwPMiY6rIRzQ-107" value="" style="shape=image;html=1;verticalAlign=top;verticalLabelPosition=bottom;labelBackgroundColor=#ffffff;imageAspect=0;aspect=fixed;image=https://cdn4.iconfinder.com/data/icons/ios-web-user-interface-multi-circle-flat-vol-5/512/Descending_filter_filtering_tool_funnel_sort-128.png;rounded=1;shadow=1;sketch=0;strokeColor=#000000;fillColor=#4285F4;fontSize=11;fontColor=#000000;align=left;" vertex="1" parent="1">
          <mxGeometry x="201" y="1053" width="15" height="15" as="geometry" />
        </mxCell>
        <mxCell id="yaPiBGT9IwPMiY6rIRzQ-108" value="" style="fillColor=#36B37E;strokeColor=none;rounded=1;arcSize=50;shadow=1;sketch=0;fontSize=11;fontColor=#FFFFFF;align=left;" vertex="1" parent="1">
          <mxGeometry x="256" y="1052.5" width="30" height="16" as="geometry" />
        </mxCell>
        <mxCell id="yaPiBGT9IwPMiY6rIRzQ-109" value="" style="shape=ellipse;strokeColor=none;fillColor=#ffffff" vertex="1" parent="yaPiBGT9IwPMiY6rIRzQ-108">
          <mxGeometry x="1" y="0.5" width="12" height="12" relative="1" as="geometry">
            <mxPoint x="-15" y="-6" as="offset" />
          </mxGeometry>
        </mxCell>
        <mxCell id="yaPiBGT9IwPMiY6rIRzQ-110" value="" style="html=1;shadow=0;dashed=0;shape=mxgraph.atlassian.check;strokeColor=#ffffff" vertex="1" parent="yaPiBGT9IwPMiY6rIRzQ-108">
          <mxGeometry y="0.5" width="6" height="5" relative="1" as="geometry">
            <mxPoint x="4" y="-3" as="offset" />
          </mxGeometry>
        </mxCell>
        <mxCell id="yaPiBGT9IwPMiY6rIRzQ-111" value="" style="group" vertex="1" connectable="0" parent="1">
          <mxGeometry x="26" y="1085" width="270" height="580" as="geometry" />
        </mxCell>
        <mxCell id="yaPiBGT9IwPMiY6rIRzQ-112" value="" style="line;strokeWidth=1;fillColor=none;align=left;verticalAlign=middle;spacingTop=-1;spacingLeft=3;spacingRight=3;rotatable=0;labelPosition=right;points=[];portConstraint=eastwest;sketch=0;direction=south;" vertex="1" parent="yaPiBGT9IwPMiY6rIRzQ-111">
          <mxGeometry x="262.2302158273381" y="1.6524216524216524" width="7.76978417266187" height="578.3475783475783" as="geometry" />
        </mxCell>
        <mxCell id="yaPiBGT9IwPMiY6rIRzQ-113" value="" style="perimeter=none;dashed=0;shape=mxgraph.gmdl.triangle;strokeColor=none;fillColor=#666666;direction=south;aspect=fixed;" vertex="1" parent="yaPiBGT9IwPMiY6rIRzQ-111">
          <mxGeometry x="252.51798561151077" y="284.2165242165242" width="6.60968660968661" height="13.21937321937322" as="geometry">
            <mxPoint x="-27" as="offset" />
          </mxGeometry>
        </mxCell>
        <mxCell id="yaPiBGT9IwPMiY6rIRzQ-114" value="Select Age" style="rounded=1;fillColor=#F1F2F4;strokeColor=none;html=1;fontColor=#596780;align=left;fontSize=12;spacingLeft=10;shadow=0;sketch=0;" vertex="1" parent="yaPiBGT9IwPMiY6rIRzQ-111">
          <mxGeometry x="19.424460431654676" y="76.83760683760684" width="223.38129496402877" height="24.786324786324787" as="geometry" />
        </mxCell>
        <mxCell id="yaPiBGT9IwPMiY6rIRzQ-115" value="" style="shape=triangle;direction=south;fillColor=#596780;strokeColor=none;html=1" vertex="1" parent="yaPiBGT9IwPMiY6rIRzQ-114">
          <mxGeometry x="1" y="0.5" width="12" height="6" relative="1" as="geometry">
            <mxPoint x="-20" y="-3" as="offset" />
          </mxGeometry>
        </mxCell>
        <mxCell id="yaPiBGT9IwPMiY6rIRzQ-116" value="Select Status" style="rounded=1;fillColor=#F1F2F4;strokeColor=none;html=1;fontColor=#596780;align=left;fontSize=12;spacingLeft=10;shadow=0;sketch=0;" vertex="1" parent="yaPiBGT9IwPMiY6rIRzQ-111">
          <mxGeometry x="19.424460431654676" y="35.527065527065524" width="223.38129496402877" height="24.786324786324787" as="geometry" />
        </mxCell>
        <mxCell id="yaPiBGT9IwPMiY6rIRzQ-117" value="" style="shape=triangle;direction=south;fillColor=#596780;strokeColor=none;html=1" vertex="1" parent="yaPiBGT9IwPMiY6rIRzQ-116">
          <mxGeometry x="1" y="0.5" width="12" height="6" relative="1" as="geometry">
            <mxPoint x="-20" y="-3" as="offset" />
          </mxGeometry>
        </mxCell>
        <mxCell id="yaPiBGT9IwPMiY6rIRzQ-118" value="Select System" style="rounded=1;fillColor=#F1F2F4;strokeColor=none;html=1;fontColor=#596780;align=left;fontSize=12;spacingLeft=10;shadow=0;sketch=0;" vertex="1" parent="yaPiBGT9IwPMiY6rIRzQ-111">
          <mxGeometry x="19.424460431654676" y="118.14814814814815" width="223.38129496402877" height="24.786324786324787" as="geometry" />
        </mxCell>
        <mxCell id="yaPiBGT9IwPMiY6rIRzQ-119" value="" style="shape=triangle;direction=south;fillColor=#596780;strokeColor=none;html=1" vertex="1" parent="yaPiBGT9IwPMiY6rIRzQ-118">
          <mxGeometry x="1" y="0.5" width="12" height="6" relative="1" as="geometry">
            <mxPoint x="-20" y="-3" as="offset" />
          </mxGeometry>
        </mxCell>
        <mxCell id="yaPiBGT9IwPMiY6rIRzQ-120" value="Select Needs Review&amp;nbsp;" style="rounded=1;fillColor=#F1F2F4;strokeColor=none;html=1;fontColor=#596780;align=left;fontSize=12;spacingLeft=10;shadow=0;sketch=0;" vertex="1" parent="yaPiBGT9IwPMiY6rIRzQ-111">
          <mxGeometry x="19.424460431654676" y="158.63247863247864" width="223.38129496402877" height="24.786324786324787" as="geometry" />
        </mxCell>
        <mxCell id="yaPiBGT9IwPMiY6rIRzQ-121" value="" style="shape=triangle;direction=south;fillColor=#596780;strokeColor=none;html=1" vertex="1" parent="yaPiBGT9IwPMiY6rIRzQ-120">
          <mxGeometry x="1" y="0.5" width="12" height="6" relative="1" as="geometry">
            <mxPoint x="-20" y="-3" as="offset" />
          </mxGeometry>
        </mxCell>
        <mxCell id="yaPiBGT9IwPMiY6rIRzQ-122" value="Select Match Percentage" style="rounded=1;fillColor=#F1F2F4;strokeColor=none;html=1;fontColor=#596780;align=left;fontSize=12;spacingLeft=10;shadow=0;sketch=0;" vertex="1" parent="yaPiBGT9IwPMiY6rIRzQ-111">
          <mxGeometry x="19.424460431654676" y="195.81196581196582" width="223.38129496402877" height="24.786324786324787" as="geometry" />
        </mxCell>
        <mxCell id="yaPiBGT9IwPMiY6rIRzQ-123" value="" style="shape=triangle;direction=south;fillColor=#596780;strokeColor=none;html=1" vertex="1" parent="yaPiBGT9IwPMiY6rIRzQ-122">
          <mxGeometry x="1" y="0.5" width="12" height="6" relative="1" as="geometry">
            <mxPoint x="-20" y="-3" as="offset" />
          </mxGeometry>
        </mxCell>
        <mxCell id="yaPiBGT9IwPMiY6rIRzQ-133" value="Filter" style="html=1;shadow=0;dashed=0;shape=mxgraph.bootstrap.rrect;rSize=5;fillColor=#0085FC;strokeColor=none;fontColor=#FFFFFF;fontSize=14;" vertex="1" parent="yaPiBGT9IwPMiY6rIRzQ-111">
          <mxGeometry x="161.2230215827338" y="531.2535612535612" width="88.38129496402877" height="33.04843304843305" as="geometry" />
        </mxCell>
        <mxCell id="yaPiBGT9IwPMiY6rIRzQ-134" value="Cancel" style="html=1;shadow=0;dashed=0;shape=mxgraph.bootstrap.rrect;rSize=5;fillColor=#6C757D;strokeColor=none;fontColor=#FFFFFF;fontSize=14;" vertex="1" parent="yaPiBGT9IwPMiY6rIRzQ-111">
          <mxGeometry x="74.7841726618705" y="531.2535612535612" width="67.98561151079136" height="33.04843304843305" as="geometry" />
        </mxCell>
        <mxCell id="yaPiBGT9IwPMiY6rIRzQ-135" value="&lt;font color=&quot;#666666&quot; style=&quot;font-size: 16px;&quot;&gt;Filter&lt;/font&gt;" style="text;strokeColor=none;fillColor=none;html=1;fontSize=16;fontStyle=1;verticalAlign=middle;align=center;labelBackgroundColor=none;sketch=0;" vertex="1" parent="yaPiBGT9IwPMiY6rIRzQ-111">
          <mxGeometry width="74.7841726618705" height="26.43874643874644" as="geometry" />
        </mxCell>
        <mxCell id="yaPiBGT9IwPMiY6rIRzQ-138" value="&lt;font style=&quot;font-size: 18px&quot;&gt;Add facets to Rules Search&lt;/font&gt;" style="rounded=1;whiteSpace=wrap;html=1;fillColor=#d5e8d4;strokeColor=#82b366;" vertex="1" parent="1">
          <mxGeometry x="-240" y="1150" width="230" height="100" as="geometry" />
        </mxCell>
        <mxCell id="yaPiBGT9IwPMiY6rIRzQ-139" value="&lt;font style=&quot;font-size: 18px&quot;&gt;Add rules to home page. Show Rule tasks. &lt;br&gt;Show general metrics.&lt;/font&gt;" style="rounded=1;whiteSpace=wrap;html=1;fillColor=#d5e8d4;strokeColor=#82b366;" vertex="1" parent="1">
          <mxGeometry x="-250" y="287" width="230" height="100" as="geometry" />
        </mxCell>
        <mxCell id="yaPiBGT9IwPMiY6rIRzQ-142" value="&lt;span style=&quot;font-size: 18px&quot;&gt;Low rule match&lt;/span&gt;" style="rounded=1;whiteSpace=wrap;html=1;fillColor=#d5e8d4;strokeColor=#82b366;" vertex="1" parent="1">
          <mxGeometry x="-250" y="1990" width="230" height="100" as="geometry" />
        </mxCell>
        <mxCell id="yaPiBGT9IwPMiY6rIRzQ-153" value="&lt;b&gt;Document Hits: 0&lt;br&gt;&lt;/b&gt;" style="text;html=1;strokeColor=none;fillColor=none;align=left;verticalAlign=top;whiteSpace=wrap;rounded=0;fontSize=13;fontColor=#000000;" vertex="1" parent="1">
          <mxGeometry x="683.5" y="2015" width="306.5" height="35" as="geometry" />
        </mxCell>
        <mxCell id="yaPiBGT9IwPMiY6rIRzQ-154" value="" style="shape=image;html=1;verticalAlign=top;verticalLabelPosition=bottom;labelBackgroundColor=#ffffff;imageAspect=0;aspect=fixed;image=https://cdn2.iconfinder.com/data/icons/ios-7-icons/50/line_chart-128.png;strokeColor=#FF8000;fillColor=#FF8000;fontColor=#FFFFFF;" vertex="1" parent="1">
          <mxGeometry x="690.25" y="2070.75" width="278.5" height="278.5" as="geometry" />
        </mxCell>
        <mxCell id="yaPiBGT9IwPMiY6rIRzQ-155" value="" style="rounded=0;whiteSpace=wrap;html=1;strokeColor=#000000;fillColor=#F8F9FA;" vertex="1" parent="1">
          <mxGeometry x="36" y="2661" width="984" height="719" as="geometry" />
        </mxCell>
        <mxCell id="yaPiBGT9IwPMiY6rIRzQ-156" value="" style="rounded=0;whiteSpace=wrap;html=1;fillColor=#F8F9FA;" vertex="1" parent="1">
          <mxGeometry x="36" y="2750" width="274" height="630" as="geometry" />
        </mxCell>
        <mxCell id="yaPiBGT9IwPMiY6rIRzQ-157" value="" style="rounded=0;whiteSpace=wrap;html=1;fontSize=20;align=left;fillColor=#3333FF;" vertex="1" parent="1">
          <mxGeometry x="36" y="2750" width="984" height="40" as="geometry" />
        </mxCell>
        <mxCell id="yaPiBGT9IwPMiY6rIRzQ-158" value="" style="rounded=0;whiteSpace=wrap;html=1;fillColor=#F8F9FA;" vertex="1" parent="1">
          <mxGeometry x="36" y="2661" width="984" height="89" as="geometry" />
        </mxCell>
        <mxCell id="yaPiBGT9IwPMiY6rIRzQ-159" value="" style="rounded=0;whiteSpace=wrap;html=1;fillColor=#3333FF;" vertex="1" parent="1">
          <mxGeometry x="36" y="2600" width="984" height="61" as="geometry" />
        </mxCell>
        <mxCell id="yaPiBGT9IwPMiY6rIRzQ-160" value="&lt;font style=&quot;font-size: 14px&quot;&gt;FEEDBACK&lt;/font&gt;" style="rounded=1;whiteSpace=wrap;html=1;fillColor=#FF8000;strokeColor=#FF8000;fontColor=#FFFFFF;" vertex="1" parent="1">
          <mxGeometry x="886" y="2610.5" width="120" height="40" as="geometry" />
        </mxCell>
        <mxCell id="yaPiBGT9IwPMiY6rIRzQ-161" value="" style="shape=image;html=1;verticalAlign=top;verticalLabelPosition=bottom;labelBackgroundColor=#ffffff;imageAspect=0;aspect=fixed;image=https://cdn3.iconfinder.com/data/icons/social-media-2125/78/bell-128.png;strokeColor=#FF8000;fillColor=#FF8000;fontColor=#FFFFFF;" vertex="1" parent="1">
          <mxGeometry x="832" y="2612" width="37" height="37" as="geometry" />
        </mxCell>
        <mxCell id="yaPiBGT9IwPMiY6rIRzQ-162" value="" style="whiteSpace=wrap;html=1;shape=mxgraph.basic.octagon2;align=center;verticalAlign=middle;dx=12;shadow=0;sketch=0;fontSize=20;fontColor=#808080;fillColor=#FF8000;strokeColor=#FF8000;" vertex="1" parent="1">
          <mxGeometry x="46" y="2606.5" width="56" height="42" as="geometry" />
        </mxCell>
        <mxCell id="yaPiBGT9IwPMiY6rIRzQ-163" value="Rules Engine" style="text;html=1;strokeColor=none;fillColor=none;align=center;verticalAlign=middle;whiteSpace=wrap;rounded=0;shadow=0;sketch=0;fontSize=20;fontColor=#FFFFFF;fontStyle=1" vertex="1" parent="1">
          <mxGeometry x="112" y="2620" width="148" height="20" as="geometry" />
        </mxCell>
        <mxCell id="yaPiBGT9IwPMiY6rIRzQ-164" value="" style="html=1;verticalLabelPosition=bottom;align=center;labelBackgroundColor=#ffffff;verticalAlign=top;strokeWidth=2;shadow=0;dashed=0;shape=mxgraph.ios7.icons.user;sketch=0;fontSize=20;fontColor=#FFFFFF;fillColor=#FFFFFF;" vertex="1" parent="1">
          <mxGeometry x="680" y="2617" width="30" height="30" as="geometry" />
        </mxCell>
        <mxCell id="yaPiBGT9IwPMiY6rIRzQ-165" value="John Doe" style="text;html=1;strokeColor=none;fillColor=none;align=center;verticalAlign=middle;whiteSpace=wrap;rounded=0;shadow=0;sketch=0;fontSize=19;fontColor=#FFFFFF;" vertex="1" parent="1">
          <mxGeometry x="723.5" y="2622" width="94" height="20" as="geometry" />
        </mxCell>
        <mxCell id="yaPiBGT9IwPMiY6rIRzQ-166" value="" style="html=1;shadow=0;dashed=0;fillColor=#F8F9FA;strokeColor=none;fontSize=16;fontColor=#181819;align=left;spacing=15;" vertex="1" parent="1">
          <mxGeometry x="260" y="2680" width="555" height="60" as="geometry" />
        </mxCell>
        <mxCell id="yaPiBGT9IwPMiY6rIRzQ-167" value="Search" style="html=1;shadow=0;dashed=0;shape=mxgraph.bootstrap.rrect;rSize=5;fontSize=14;fontColor=#6C767D;strokeColor=#CED4DA;fillColor=#ffffff;align=left;spacing=10;" vertex="1" parent="yaPiBGT9IwPMiY6rIRzQ-166">
          <mxGeometry width="470" height="40" relative="1" as="geometry">
            <mxPoint x="10" y="10" as="offset" />
          </mxGeometry>
        </mxCell>
        <mxCell id="yaPiBGT9IwPMiY6rIRzQ-168" value="" style="ellipse;whiteSpace=wrap;html=1;fillColor=#FFFFFF;" vertex="1" parent="yaPiBGT9IwPMiY6rIRzQ-166">
          <mxGeometry x="425.67961165048536" y="22" width="10.776699029126211" height="10" as="geometry" />
        </mxCell>
        <mxCell id="yaPiBGT9IwPMiY6rIRzQ-169" value="" style="endArrow=none;html=1;" edge="1" parent="yaPiBGT9IwPMiY6rIRzQ-166">
          <mxGeometry width="50" height="50" relative="1" as="geometry">
            <mxPoint x="436.4563106796116" y="32" as="sourcePoint" />
            <mxPoint x="436.4563106796116" y="32" as="targetPoint" />
            <Array as="points">
              <mxPoint x="447.23300970873777" y="40" />
            </Array>
          </mxGeometry>
        </mxCell>
        <mxCell id="yaPiBGT9IwPMiY6rIRzQ-170" value="" style="triangle;whiteSpace=wrap;html=1;rotation=90;fillColor=#000000;" vertex="1" parent="yaPiBGT9IwPMiY6rIRzQ-166">
          <mxGeometry x="458.00970873786395" y="25" width="10.776699029126211" height="10" as="geometry" />
        </mxCell>
        <mxCell id="yaPiBGT9IwPMiY6rIRzQ-171" value="" style="html=1;shadow=0;dashed=0;shape=mxgraph.bootstrap.rrect;rSize=5;strokeColor=#DFDFDF;html=1;whiteSpace=wrap;fillColor=#FFFFFF;fontColor=#495057;" vertex="1" parent="1">
          <mxGeometry x="40" y="2810" width="260" height="300" as="geometry" />
        </mxCell>
        <mxCell id="yaPiBGT9IwPMiY6rIRzQ-172" value="&lt;font style=&quot;font-size: 16px&quot;&gt;Rule Title #1&lt;/font&gt;&lt;br&gt;&lt;b&gt;UUID:&lt;/b&gt;&amp;nbsp;1111-1111-1111&lt;br&gt;&lt;b&gt;System:&lt;/b&gt;&amp;nbsp;System X&lt;br&gt;&lt;b&gt;Description:&lt;/b&gt;&amp;nbsp; Match U docs" style="html=1;shadow=0;dashed=0;shape=mxgraph.bootstrap.topButton;rSize=5;perimeter=none;whiteSpace=wrap;resizeWidth=1;align=left;spacing=10;verticalAlign=top;fillColor=#0085FC;strokeColor=#0085FC;fontColor=#ffffff;" vertex="1" parent="yaPiBGT9IwPMiY6rIRzQ-171">
          <mxGeometry width="260" height="100" relative="1" as="geometry" />
        </mxCell>
        <mxCell id="yaPiBGT9IwPMiY6rIRzQ-173" value="&lt;font style=&quot;font-size: 16px&quot;&gt;Rule Title&amp;nbsp;#2&lt;/font&gt;&lt;br&gt;&lt;b style=&quot;color: rgb(73 , 80 , 87)&quot;&gt;UUID&lt;/b&gt;&lt;b&gt;:&lt;/b&gt;&amp;nbsp;2222-2222-2222&lt;br&gt;&lt;b style=&quot;color: rgb(73 , 80 , 87)&quot;&gt;System&lt;/b&gt;&lt;span style=&quot;color: rgb(73 , 80 , 87)&quot;&gt;&lt;b&gt;:&lt;/b&gt;&amp;nbsp; System Y&lt;/span&gt;&lt;br style=&quot;color: rgb(73 , 80 , 87)&quot;&gt;&lt;b style=&quot;color: rgb(73 , 80 , 87)&quot;&gt;Description&lt;/b&gt;&lt;span style=&quot;color: rgb(73 , 80 , 87)&quot;&gt;&lt;b&gt;:&lt;/b&gt;&amp;nbsp; Find carrots&lt;/span&gt;" style="strokeColor=inherit;fillColor=inherit;gradientColor=inherit;fontColor=inherit;html=1;shadow=0;dashed=0;perimeter=none;whiteSpace=wrap;resizeWidth=1;align=left;spacing=10;" vertex="1" parent="yaPiBGT9IwPMiY6rIRzQ-171">
          <mxGeometry width="260" height="100" relative="1" as="geometry">
            <mxPoint y="100" as="offset" />
          </mxGeometry>
        </mxCell>
        <mxCell id="yaPiBGT9IwPMiY6rIRzQ-174" value="&lt;font style=&quot;font-size: 16px&quot;&gt;Rule Title #3&lt;/font&gt;&lt;br&gt;&lt;b style=&quot;color: rgb(73 , 80 , 87)&quot;&gt;UUID&lt;/b&gt;: 3333-3333-3333&lt;br&gt;&lt;b style=&quot;color: rgb(73 , 80 , 87)&quot;&gt;System&lt;/b&gt;&lt;span style=&quot;color: rgb(73 , 80 , 87)&quot;&gt;&lt;b&gt;:&lt;/b&gt;&amp;nbsp; System Z&lt;/span&gt;&lt;br style=&quot;color: rgb(73 , 80 , 87)&quot;&gt;&lt;b style=&quot;color: rgb(73 , 80 , 87)&quot;&gt;Description&lt;/b&gt;&lt;span style=&quot;color: rgb(73 , 80 , 87)&quot;&gt;&lt;b&gt;:&lt;/b&gt;&amp;nbsp; Find bombs&lt;/span&gt;" style="strokeColor=inherit;fillColor=inherit;gradientColor=inherit;fontColor=inherit;html=1;shadow=0;dashed=0;shape=mxgraph.bootstrap.bottomButton;rSize=5;perimeter=none;whiteSpace=wrap;resizeWidth=1;resizeHeight=0;align=left;spacing=10;" vertex="1" parent="yaPiBGT9IwPMiY6rIRzQ-171">
          <mxGeometry y="1" width="260" height="100" relative="1" as="geometry">
            <mxPoint y="-100" as="offset" />
          </mxGeometry>
        </mxCell>
        <mxCell id="yaPiBGT9IwPMiY6rIRzQ-176" value="Rule Title #1" style="shape=rect;fillColor=#ffffff;strokeColor=#eeeeee;shadow=1;fontColor=#000000;fontSize=23;fontStyle=0;verticalAlign=top;spacingBottom=0;spacingLeft=16;spacingTop=20;align=left;rounded=0;" vertex="1" parent="1">
          <mxGeometry x="320" y="2800" width="330" height="560" as="geometry" />
        </mxCell>
        <mxCell id="yaPiBGT9IwPMiY6rIRzQ-177" value="UUID:&#xa;&#xa;Description:&#xa;&#xa;System:&#xa;&#xa;Terms:&#xa;&#xa;Actions:&#xa;&#xa;&#xa;" style="text;whiteSpace=wrap;fontSize=13;spacing=16;spacingTop=-4;resizeWidth=1;resizeHeight=1;fontStyle=1" vertex="1" parent="yaPiBGT9IwPMiY6rIRzQ-176">
          <mxGeometry width="110" height="340" relative="1" as="geometry">
            <mxPoint x="5" y="50" as="offset" />
          </mxGeometry>
        </mxCell>
        <mxCell id="yaPiBGT9IwPMiY6rIRzQ-178" value="&amp;lt;Classification Here&amp;gt;" style="rounded=0;whiteSpace=wrap;html=1;shadow=0;sketch=0;fontSize=12;align=center;fillColor=#FFFF33;" vertex="1" parent="yaPiBGT9IwPMiY6rIRzQ-176">
          <mxGeometry y="5.1856" width="330" height="20.7424" as="geometry" />
        </mxCell>
        <mxCell id="yaPiBGT9IwPMiY6rIRzQ-179" value="1234-1234-1234&#xa;&#xa;Match U documents&#xa;&#xa;System X&#xa;&#xa;CLASSIFICATION = U&#xa;&#xa;Add to RMM with FRCS-1" style="text;whiteSpace=wrap;fontSize=13;spacing=16;spacingTop=-4;resizeWidth=1;resizeHeight=1;fontStyle=0" vertex="1" parent="yaPiBGT9IwPMiY6rIRzQ-176">
          <mxGeometry x="110" y="50" width="190" height="340" as="geometry" />
        </mxCell>
        <mxCell id="yaPiBGT9IwPMiY6rIRzQ-180" value="&lt;span style=&quot;font-size: 23px&quot;&gt;&lt;font color=&quot;#ff3333&quot;&gt;Rule Actions&lt;/font&gt;&lt;/span&gt;" style="text;html=1;strokeColor=none;fillColor=none;align=center;verticalAlign=middle;whiteSpace=wrap;rounded=0;fontColor=#000000;" vertex="1" parent="yaPiBGT9IwPMiY6rIRzQ-176">
          <mxGeometry x="12" y="235" width="148" height="35" as="geometry" />
        </mxCell>
        <mxCell id="yaPiBGT9IwPMiY6rIRzQ-181" value="This rule has not been marked as reviewed in &lt;b&gt;97&amp;nbsp;&lt;/b&gt;days.&lt;br&gt;&lt;br&gt;Review the rule and mark as reviewed, which will set the next required review date to &lt;b&gt;2020-07-01&lt;/b&gt;" style="text;html=1;strokeColor=none;fillColor=none;align=left;verticalAlign=top;whiteSpace=wrap;rounded=0;fontColor=#000000;" vertex="1" parent="yaPiBGT9IwPMiY6rIRzQ-176">
          <mxGeometry x="20" y="270" width="300" height="60" as="geometry" />
        </mxCell>
        <mxCell id="yaPiBGT9IwPMiY6rIRzQ-182" value="Reviewed" style="html=1;shadow=0;dashed=0;shape=mxgraph.bootstrap.rrect;rSize=5;fillColor=#dae8fc;strokeColor=#6c8ebf;fontSize=14;" vertex="1" parent="yaPiBGT9IwPMiY6rIRzQ-176">
          <mxGeometry x="41.81302158273377" y="345.0035612535612" width="88.38129496402877" height="33.04843304843305" as="geometry" />
        </mxCell>
        <mxCell id="yaPiBGT9IwPMiY6rIRzQ-183" value="Delete" style="html=1;shadow=0;dashed=0;shape=mxgraph.bootstrap.rrect;rSize=5;fillColor=#f8cecc;strokeColor=#b85450;fontSize=14;" vertex="1" parent="yaPiBGT9IwPMiY6rIRzQ-176">
          <mxGeometry x="160.00302158273377" y="345.0035612535612" width="88.38129496402877" height="33.04843304843305" as="geometry" />
        </mxCell>
        <mxCell id="yaPiBGT9IwPMiY6rIRzQ-202" value="Rule Review History" style="text;html=1;strokeColor=none;fillColor=none;align=center;verticalAlign=middle;whiteSpace=wrap;rounded=0;fontSize=13;fontColor=#000000;fontStyle=1" vertex="1" parent="yaPiBGT9IwPMiY6rIRzQ-176">
          <mxGeometry x="12" y="400" width="138" height="20" as="geometry" />
        </mxCell>
        <mxCell id="yaPiBGT9IwPMiY6rIRzQ-203" value="2020-01-01: HoggeB&lt;br&gt;2019-07-01: Kimmela&lt;br&gt;2019-01-01: Kimmela" style="text;html=1;strokeColor=none;fillColor=none;align=left;verticalAlign=top;whiteSpace=wrap;rounded=0;fontColor=#000000;" vertex="1" parent="yaPiBGT9IwPMiY6rIRzQ-176">
          <mxGeometry x="12" y="420" width="300" height="60" as="geometry" />
        </mxCell>
        <mxCell id="yaPiBGT9IwPMiY6rIRzQ-184" value="Rules Audit Review" style="text;html=1;strokeColor=none;fillColor=none;align=left;verticalAlign=middle;whiteSpace=wrap;rounded=0;labelPosition=center;verticalLabelPosition=middle;fontSize=16;fontStyle=1;fontColor=#FFFFFF;" vertex="1" parent="1">
          <mxGeometry x="43" y="2760" width="260" height="20" as="geometry" />
        </mxCell>
        <mxCell id="yaPiBGT9IwPMiY6rIRzQ-185" value="" style="shape=ellipse;dashed=0;strokeColor=none;shadow=1;fontSize=13;align=center;verticalAlign=top;labelPosition=center;verticalLabelPosition=bottom;html=1;aspect=fixed;fillColor=#F8F9FA;" vertex="1" parent="1">
          <mxGeometry x="610" y="2870" width="30" height="30" as="geometry" />
        </mxCell>
        <mxCell id="yaPiBGT9IwPMiY6rIRzQ-186" value="" style="dashed=0;html=1;shape=mxgraph.gmdl.edit;strokeColor=none;fillColor=#737373;shadow=0;" vertex="1" parent="yaPiBGT9IwPMiY6rIRzQ-185">
          <mxGeometry x="9.642857142857142" y="9.642857142857142" width="10.714285714285714" height="10.714285714285714" as="geometry" />
        </mxCell>
        <mxCell id="yaPiBGT9IwPMiY6rIRzQ-187" value="" style="shape=ellipse;dashed=0;strokeColor=none;shadow=1;fontSize=13;align=center;verticalAlign=top;labelPosition=center;verticalLabelPosition=bottom;html=1;aspect=fixed;fillColor=#F8F9FA;" vertex="1" parent="1">
          <mxGeometry x="610" y="2830" width="30" height="30" as="geometry" />
        </mxCell>
        <mxCell id="yaPiBGT9IwPMiY6rIRzQ-188" value="" style="dashed=0;html=1;shape=mxgraph.gmdl.x;strokeColor=#737373;strokeWidth=2;shadow=0;" vertex="1" parent="yaPiBGT9IwPMiY6rIRzQ-187">
          <mxGeometry x="10.714285714285714" y="10.714285714285714" width="8.571428571428571" height="8.571428571428571" as="geometry" />
        </mxCell>
        <mxCell id="yaPiBGT9IwPMiY6rIRzQ-189" value="&amp;lt;Classification Here&amp;gt;" style="rounded=0;whiteSpace=wrap;html=1;shadow=0;sketch=0;fontSize=12;align=center;fillColor=#FFFF33;" vertex="1" parent="1">
          <mxGeometry x="36" y="2580" width="984" height="20" as="geometry" />
        </mxCell>
        <mxCell id="yaPiBGT9IwPMiY6rIRzQ-190" value="" style="html=1;shadow=0;dashed=0;shape=mxgraph.bootstrap.rrect;rSize=5;strokeColor=#DEE2E6;html=1;whiteSpace=wrap;fillColor=#ffffff;fontColor=#0085FC;fontSize=14;" vertex="1" parent="1">
          <mxGeometry x="120" y="3350" width="187" height="25" as="geometry" />
        </mxCell>
        <mxCell id="yaPiBGT9IwPMiY6rIRzQ-191" value="Previous" style="strokeColor=inherit;fillColor=inherit;gradientColor=inherit;html=1;shadow=0;dashed=0;shape=mxgraph.bootstrap.leftButton;rSize=5;perimeter=none;whiteSpace=wrap;resizeHeight=1;fontColor=#6C767D;fontSize=14;" vertex="1" parent="yaPiBGT9IwPMiY6rIRzQ-190">
          <mxGeometry width="70" height="25" relative="1" as="geometry" />
        </mxCell>
        <mxCell id="yaPiBGT9IwPMiY6rIRzQ-192" value="1" style="strokeColor=inherit;fillColor=inherit;gradientColor=inherit;fontColor=inherit;html=1;shadow=0;dashed=0;perimeter=none;whiteSpace=wrap;resizeHeight=1;fontSize=14;" vertex="1" parent="yaPiBGT9IwPMiY6rIRzQ-190">
          <mxGeometry width="30" height="25" relative="1" as="geometry">
            <mxPoint x="70" as="offset" />
          </mxGeometry>
        </mxCell>
        <mxCell id="yaPiBGT9IwPMiY6rIRzQ-193" value="2" style="html=1;shadow=0;dashed=0;perimeter=none;whiteSpace=wrap;resizeHeight=1;fillColor=#0085FC;strokeColor=none;fontColor=#ffffff;fontSize=14;" vertex="1" parent="yaPiBGT9IwPMiY6rIRzQ-190">
          <mxGeometry width="30" height="25" relative="1" as="geometry">
            <mxPoint x="100" as="offset" />
          </mxGeometry>
        </mxCell>
        <mxCell id="yaPiBGT9IwPMiY6rIRzQ-194" value="3" style="strokeColor=inherit;fillColor=inherit;gradientColor=inherit;fontColor=inherit;html=1;shadow=0;dashed=0;perimeter=none;whiteSpace=wrap;resizeHeight=1;fontSize=14;" vertex="1" parent="yaPiBGT9IwPMiY6rIRzQ-190">
          <mxGeometry width="30" height="25" relative="1" as="geometry">
            <mxPoint x="130" as="offset" />
          </mxGeometry>
        </mxCell>
        <mxCell id="yaPiBGT9IwPMiY6rIRzQ-195" value="Next" style="strokeColor=inherit;fillColor=inherit;gradientColor=inherit;fontColor=inherit;html=1;shadow=0;dashed=0;shape=mxgraph.bootstrap.rightButton;rSize=5;perimeter=none;whiteSpace=wrap;resizeHeight=1;fontSize=14;" vertex="1" parent="yaPiBGT9IwPMiY6rIRzQ-190">
          <mxGeometry x="1" width="60" height="25" relative="1" as="geometry">
            <mxPoint x="-60" as="offset" />
          </mxGeometry>
        </mxCell>
        <mxCell id="yaPiBGT9IwPMiY6rIRzQ-196" value="30 Day History" style="shape=rect;fillColor=#ffffff;strokeColor=#eeeeee;shadow=1;fontColor=#000000;fontSize=23;fontStyle=0;verticalAlign=top;spacingBottom=0;spacingLeft=16;spacingTop=20;align=left;rounded=0;" vertex="1" parent="1">
          <mxGeometry x="670" y="2800" width="330" height="560" as="geometry" />
        </mxCell>
        <mxCell id="yaPiBGT9IwPMiY6rIRzQ-197" value="&lt;b&gt;Document Hits: 150, 552&lt;br&gt;&lt;/b&gt;" style="text;html=1;strokeColor=none;fillColor=none;align=left;verticalAlign=top;whiteSpace=wrap;rounded=0;fontSize=13;fontColor=#000000;" vertex="1" parent="1">
          <mxGeometry x="683.5" y="2870" width="306.5" height="35" as="geometry" />
        </mxCell>
        <mxCell id="yaPiBGT9IwPMiY6rIRzQ-198" value="" style="shape=image;html=1;verticalAlign=top;verticalLabelPosition=bottom;labelBackgroundColor=#ffffff;imageAspect=0;aspect=fixed;image=https://cdn2.iconfinder.com/data/icons/ios-7-icons/50/line_chart-128.png;strokeColor=#FF8000;fillColor=#FF8000;fontColor=#FFFFFF;" vertex="1" parent="1">
          <mxGeometry x="690.25" y="2925.75" width="278.5" height="278.5" as="geometry" />
        </mxCell>
        <mxCell id="yaPiBGT9IwPMiY6rIRzQ-201" value="&lt;span style=&quot;font-size: 18px&quot;&gt;Rules Review After X days&lt;/span&gt;" style="rounded=1;whiteSpace=wrap;html=1;fillColor=#d5e8d4;strokeColor=#82b366;" vertex="1" parent="1">
          <mxGeometry x="-290" y="2910" width="230" height="100" as="geometry" />
        </mxCell>
      </root>
    </mxGraphModel>
  </diagram>
</mxfile>
